<svg xmlns="http://www.w3.org/2000/svg" width="37.554" height="59" viewBox="0 0 37.554 59"><defs><style>.a{fill:#d9d9d8;}</style></defs><g transform="translate(0)"><g transform="translate(0)"><path class="a" d="M104.11,0C93.757,0,85.333,8.823,85.333,19.667a20.448,20.448,0,0,0,2.254,9.346l15.5,29.354a1.149,1.149,0,0,0,2.054,0L120.639,29a20.446,20.446,0,0,0,2.249-9.336C122.887,8.823,114.464,0,104.11,0Zm0,29.5a9.63,9.63,0,0,1-9.389-9.833,9.4,9.4,0,1,1,18.777,0A9.63,9.63,0,0,1,104.11,29.5Z" transform="translate(-85.333 0)"/></g></g></svg>