<svg xmlns="http://www.w3.org/2000/svg" width="10.786" height="10.786" viewBox="0 0 10.786 10.786"><defs><style>.a{fill:#fff;}</style></defs><g transform="translate(0)"><path class="a" d="M10.809,6.855a1.975,1.975,0,0,0-1.548.753L5.894,5.9a1.937,1.937,0,0,0,.076-.509,1.922,1.922,0,0,0-.09-.551l3.351-1.7a1.954,1.954,0,1,0-.4-1.178,1.929,1.929,0,0,0,.076.51L5.538,4.182a1.964,1.964,0,1,0,.029,2.387l3.35,1.7a1.926,1.926,0,0,0-.091.553,1.982,1.982,0,1,0,1.982-1.966Z" transform="translate(-2.006 0)"/></g></svg>