<svg xmlns="http://www.w3.org/2000/svg" xmlns:xlink="http://www.w3.org/1999/xlink" width="159.839" height="223.662" viewBox="0 0 159.839 223.662"><defs><style>.a{fill:#00a49a;}.b,.f{fill:#6c63ff;}.b{opacity:0.04;}.c{opacity:0.7;}.d{fill:url(#a);}.e{fill:#fff;}.g{fill:#ffb9b9;}.h{fill:#bedaa7;}.i{fill:#454c3a;}.j{fill:#db8415;}.k{opacity:0.1;}.l{fill:#2f2e41;}</style><linearGradient id="a" y1="0.5" x2="1" y2="0.5" gradientUnits="objectBoundingBox"><stop offset="0" stop-color="gray" stop-opacity="0.251"/><stop offset="0.535" stop-color="gray" stop-opacity="0.122"/><stop offset="1" stop-color="gray" stop-opacity="0.102"/></linearGradient></defs><path class="a" d="M411.68,76.854,332,125.889s0,101.134,79.682,156.3c79.682-55.164,79.682-156.3,79.682-156.3Z" transform="translate(-331.998 -76.854)"/><path class="b" d="M600.062,76.854l-1.362.838V281.231c.452.32.9.64,1.362.957,79.682-55.164,79.682-156.3,79.682-156.3Z" transform="translate(-519.904 -76.854)"/><g class="c" transform="translate(54.132 86.271)"><path class="d" d="M351.18,315.843,366.2,329.613l18.621-26.863,7.511,6.259L366.2,342.131l-21.28-23.784Z" transform="translate(-344.921 -302.75)"/></g><path class="e" d="M368.655,323.406l18.562,17.015,26.3-38.672,9.281,7.734L387.217,355.89l-26.3-29.39Z" transform="translate(-309.295 -234.582)"/><rect class="f" width="6.571" height="8.449" transform="translate(126.375 67.771) rotate(-2.221)"/><path class="g" d="M660.367,400.405s-9.094-4.345-8.948-.592,9.166,6.221,9.166,6.221Z" transform="translate(-557.047 -303.321)"/><path class="h" d="M678.867,500.944s-4.29,10.5-5.875,18.078-4,18-.894,25.4,11.934,29.13,12.024,31.476-.756,4.727,1.12,4.654,12.086-3.287,12.5-4.712-3.483-5.032-3.483-5.032l-9.625-30.16L694.676,521l7.243,29.312,1.419,36.584s6.963-2.149,7.973-.309c0,0,3.12-4.349,3.516-6.243s-1.473-37.991-1.473-37.991,6.391-41.115,1.232-40.915S689.218,489.269,678.867,500.944Z" transform="translate(-570.557 -372.111)"/><path class="i" d="M702.556,768.311s-4.759,10.519-5.21,11.006-3.552,5.3-1.207,5.214,7.883-2.654,11.958-6.57,9.449-10.7,8.962-11.152a27.689,27.689,0,0,0-3.825-1.731Z" transform="translate(-587.945 -561.747)"/><path class="i" d="M780.359,793.756s-.287,4.708-1.152,6.621-.756,4.727,1.589,4.636,8.406-1.265,8.406-1.265.36-2.832-.127-3.283-2.563-5.537-1.68-6.981S780.359,793.756,780.359,793.756Z" transform="translate(-646.732 -581.353)"/><path class="g" d="M779.806,278.6s5,7.792,6.948,9.6-3.534,5.774-3.534,5.774l-9.813,1.32s.123-8.93-.382-9.85S779.806,278.6,779.806,278.6Z" transform="translate(-642.709 -218.996)"/><path class="e" d="M742.291,307.99s2.022,3.68,3.9,3.607,11.58-4.207,11.995-5.632,3.214,10.21,3.214,10.21l-23.745,41.788-5.792-4,2.807-24.535,2.3-13.242Z" transform="translate(-613.723 -238.19)"/><path class="j" d="M730.616,338.656a13.141,13.141,0,0,0-1.457,6.163c0,.094.007.188.016.281.225,4.341,1.824,9.362,2.4,13.013.416,2.619.3,4.531-1.235,4.98-3.716,1.084.542,1.858-13.834,6.643s-16.885.655-16.921-.283,2.036-8.064,1.549-8.515-6.817,5.9-8.73,5.036-.218-5.628-.218-5.628,4.308-10.032,4.217-12.377,6.526-13.406,6.526-13.406l4.5-29.3s1.731-3.825,4.058-4.385a5.764,5.764,0,0,1,4.258.774l-3.894,8.606-4.108,15.191.687,5.61s4.777-10.05,7.915-13.929,9.828-13.064,9.828-13.064,1.562-5.27.383-6.845,4.918-1.816,7.518,4.659c1.378,3.432,3.615,8.55,5.016,13.315,1.249,4.221,1.839,8.168.6,10.423C737.8,329.068,733.041,333.6,730.616,338.656Z" transform="translate(-585.281 -231.459)"/><path class="k" d="M828.491,367.935c-1.891,3.446-6.648,7.975-9.073,13.035-.633-2.282-1.406-4.643-1.406-4.643s-2.964-15.856,5.8-19.954a5.867,5.867,0,0,1,4.074,1.138C829.138,361.734,829.728,365.68,828.491,367.935Z" transform="translate(-674.083 -273.772)"/><path class="j" d="M691.981,392.191l-7.432,2.167-10.319.4-1.062,8.966,16.958,1.221S694.363,393.038,691.981,392.191Z" transform="translate(-572.372 -299.027)"/><path class="g" d="M758.76,494.231s-9.942,1.65-7.673,4.641,11.077-.154,11.077-.154Z" transform="translate(-627.033 -370.92)"/><path class="k" d="M784.168,461.5c.225,4.341,1.824,9.362,2.4,13.013-3.167,3-6.179,5.642-7.314,5.686-2.345.091-6.115-.233-7.5.291s-2.2-8.37-2.2-8.37a7.69,7.69,0,0,1,4.526-4.4A51.5,51.5,0,0,0,784.168,461.5Z" transform="translate(-640.274 -347.862)"/><path class="j" d="M789.636,346.838s7.937-1.247,7.508,11.922.837,21.575-2.356,24.048-13.562,13.679-15.907,13.769-6.116-.233-7.5.291-2.2-8.37-2.2-8.37a7.691,7.691,0,0,1,4.527-4.4c3.7-1.553,12.409-7.057,12.337-8.934s-2.2-8.37-2.2-8.37S780.87,350.935,789.636,346.838Z" transform="translate(-640.013 -267.05)"/><ellipse class="g" cx="10.326" cy="10.326" rx="10.326" ry="10.326" transform="translate(119.771 50.489)"/><path class="l" d="M735.7,227.629a1.993,1.993,0,0,1-.868.436.619.619,0,0,1-.718-.5,2.575,2.575,0,0,1-.985,1.264c-.482.251-1.228.041-1.3-.5a2.277,2.277,0,0,1-.524,1.106.785.785,0,0,1-1.1.037,28.38,28.38,0,0,1,.147,3.513,4.473,4.473,0,0,0,1.264,3.184c1.291,1.124,3.232.846,4.931.633a1.5,1.5,0,0,1,.773.042c.636.271.607,1.156.616,1.847a5.133,5.133,0,0,0,4.494,4.874,2.573,2.573,0,0,0,1.912-.467c.482-.409.728-1.075,1.281-1.382.9-.5,1.989.229,2.646,1.02s1.3,1.764,2.323,1.908c1.346.191,2.372-1.181,2.875-2.444a14.247,14.247,0,0,0-.283-11.07C750.374,225.007,740.771,224.038,735.7,227.629Z" transform="translate(-612.558 -181.614)"/></svg>