<svg xmlns="http://www.w3.org/2000/svg" width="87.865" height="81.001" viewBox="0 0 87.865 81.001"><defs><style>.a{fill:#db8415;}</style></defs><path class="a" d="M87.362,78.572l-11.02-11.02a8.814,8.814,0,0,0-4.567-2.429V42.894q.54.045,1.077.045A12.986,12.986,0,0,0,85.488,27.084a1.716,1.716,0,0,0-1.3-1.3A12.929,12.929,0,0,0,72.143,29.27c-.126.125-.247.254-.367.383V20.672a10.675,10.675,0,0,0-.8-17.5,1.717,1.717,0,0,0-1.834,0,10.675,10.675,0,0,0-.8,17.5v2.252a11.529,11.529,0,0,0-10.7-3.064,1.717,1.717,0,0,0-1.3,1.3A11.581,11.581,0,0,0,67.612,35.3c.243,0,.487-.01.731-.025v6.893q-.335-.387-.7-.754a14.055,14.055,0,0,0-12.956-3.815,5.5,5.5,0,0,0-5.44-4.715H38.219l-5.138-7.062a9.748,9.748,0,0,0-2.651-2.486,8.3,8.3,0,0,0,5.1-7.651v-4.1H38.18a1.716,1.716,0,1,0,0-3.432H36.006V5.4a4.9,4.9,0,0,0-4.9-4.9H23a4.9,4.9,0,0,0-4.9,4.9V8.145H15.928a1.716,1.716,0,0,0,0,3.432h3.03v4.1A8.279,8.279,0,0,0,22.2,22.249a9.8,9.8,0,0,0-6.82,9.326V50.261a10.856,10.856,0,0,0,5.445,9.4V70.69H5.406a5.406,5.406,0,0,0,0,10.812h2.21a1.716,1.716,0,1,0,0-3.432H5.406a1.974,1.974,0,0,1,0-3.947H22.541a1.716,1.716,0,0,0,1.716-1.716V60.93a10.839,10.839,0,0,0,1.976.184h3.4v11.1a5.862,5.862,0,0,1-5.856,5.856H21.344a1.716,1.716,0,1,0,0,3.432h2.432a9.3,9.3,0,0,0,9.288-9.288v-11.1h6.277V76.1a5.406,5.406,0,1,0,10.812,0V57.476a9.3,9.3,0,0,0-9.287-9.288H32.6v-4.4a1.718,1.718,0,0,0,.524.082H49.247A5.474,5.474,0,0,0,52.9,42.481,14.126,14.126,0,0,0,66.984,56.159q.678,0,1.359-.066v9.036a8.809,8.809,0,0,0-4.54,2.423L52.834,78.521a1.716,1.716,0,0,0,2.427,2.427L66.229,69.979a5.44,5.44,0,0,1,7.686,0L84.936,81a1.716,1.716,0,1,0,2.427-2.427ZM68.316,31.833a8.145,8.145,0,0,1-8.8-8.8,8.145,8.145,0,0,1,8.8,8.8Zm6.254-.136a9.5,9.5,0,0,1,7.755-2.744,9.55,9.55,0,0,1-10.5,10.5c-.031-.291-.045-.581-.05-.871v-.334A9.5,9.5,0,0,1,74.569,31.7ZM70.059,6.754a7.244,7.244,0,0,1,0,10.89,7.244,7.244,0,0,1,0-10.89ZM32.1,15.68a4.856,4.856,0,1,1-9.712,0v-4.1H32.1ZM21.534,5.4A1.465,1.465,0,0,1,23,3.933h8.113A1.465,1.465,0,0,1,32.574,5.4V8.145H21.534ZM40.865,51.62a5.862,5.862,0,0,1,5.855,5.856V76.1a1.974,1.974,0,1,1-3.947,0V59.4a1.716,1.716,0,0,0-1.716-1.716H26.232a7.432,7.432,0,0,1-7.294-6.061Zm8.382-11.178H33.892l-3.334-3.748a1.716,1.716,0,1,0-2.565,2.281l1.172,1.317v7.9H18.812V31.575a6.355,6.355,0,0,1,11.494-3.739l5.652,7.769a1.715,1.715,0,0,0,1.388.707h11.9a2.065,2.065,0,1,1,0,4.13ZM68.271,52.649A10.683,10.683,0,0,1,56.4,40.782a10.68,10.68,0,0,1,11.94,10.506v.243a10.831,10.831,0,0,1-.072,1.119Zm0,0" transform="translate(0 -0.501)"/><path class="a" d="M76.094,452.5a1.717,1.717,0,1,0,1.215.5A1.732,1.732,0,0,0,76.094,452.5Zm0,0" transform="translate(-61.615 -374.931)"/></svg>