<svg xmlns="http://www.w3.org/2000/svg" width="22.012" height="22.146" viewBox="0 0 22.012 22.146"><defs><style>.a{fill:#454c3a;stroke:#707070;}.b{fill:#fff;}.c{stroke:none;}.d{fill:none;}</style></defs><g class="a" transform="translate(1.522)"><circle class="c" cx="9.785" cy="9.785" r="9.785"/><circle class="d" cx="9.785" cy="9.785" r="9.285"/></g><path class="b" d="M32.219,23.88H25.658a1.9,1.9,0,0,0-1.9,1.9V32.34a1.9,1.9,0,0,0,1.9,1.9h6.561a1.9,1.9,0,0,0,1.9-1.9V25.779A1.9,1.9,0,0,0,32.219,23.88Zm-3.28,8.59a3.41,3.41,0,1,1,3.41-3.41A3.414,3.414,0,0,1,28.939,32.47Zm3.52-6.115a.807.807,0,1,1,.807-.807A.808.808,0,0,1,32.458,26.354Z" transform="translate(-17.932 -17.89)"/><path class="b" d="M38.818,36.971a1.969,1.969,0,1,0,1.969,1.969A1.972,1.972,0,0,0,38.818,36.971Z" transform="translate(-27.812 -27.77)"/><path class="b" d="M11.006,0A11.006,11.006,0,1,0,22.012,11.006,11.007,11.007,0,0,0,11.006,0Zm6.621,14.316a3.344,3.344,0,0,1-3.34,3.34H7.726a3.344,3.344,0,0,1-3.34-3.34V7.756a3.344,3.344,0,0,1,3.34-3.34h6.561a3.344,3.344,0,0,1,3.34,3.34Z" transform="translate(0 0.134)"/></svg>