<svg xmlns="http://www.w3.org/2000/svg" width="38.006" height="38.006" viewBox="0 0 38.006 38.006"><defs><style>.a{fill:#fff;stroke:#707070;}.b{stroke:none;}.c{fill:none;}</style></defs><g transform="translate(0 -0.231)"><g class="a" transform="translate(2.615 0.251)"><circle class="b" cx="17" cy="17" r="17"/><circle class="c" cx="17" cy="17" r="16.5"/></g><path d="M38.366,23.88H27.038a3.283,3.283,0,0,0-3.279,3.279V38.487a3.283,3.283,0,0,0,3.279,3.279H38.366a3.283,3.283,0,0,0,3.279-3.279V27.159A3.283,3.283,0,0,0,38.366,23.88ZM32.7,38.711a5.888,5.888,0,1,1,5.888-5.888A5.895,5.895,0,0,1,32.7,38.711Zm6.077-10.559a1.393,1.393,0,1,1,1.393-1.393A1.395,1.395,0,0,1,38.779,28.152Z" transform="translate(-13.699 -13.537)"/><path d="M40.249,36.971a3.4,3.4,0,1,0,3.4,3.4A3.4,3.4,0,0,0,40.249,36.971Z" transform="translate(-21.246 -21.085)"/><path d="M19,0a19,19,0,1,0,19,19A19,19,0,0,0,19,0ZM30.434,24.718a5.773,5.773,0,0,1-5.767,5.767H13.339a5.773,5.773,0,0,1-5.767-5.767V13.39a5.774,5.774,0,0,1,5.767-5.767H24.667a5.773,5.773,0,0,1,5.767,5.767Z" transform="translate(0 0.231)"/></g></svg>