<svg xmlns="http://www.w3.org/2000/svg" width="38.006" height="38.006" viewBox="0 0 38.006 38.006"><defs><style>.a{fill:#fff;}</style></defs><ellipse cx="19.003" cy="19.003" rx="19.003" ry="19.003" transform="translate(0 0)"/><g transform="translate(9.169 8.12)"><path class="a" d="M48.256,36.381v7.835H43.714V36.906c0-1.835-.656-3.089-2.3-3.089a2.485,2.485,0,0,0-2.33,1.661,3.109,3.109,0,0,0-.15,1.107v7.63H34.39s.061-12.38,0-13.661h4.543V32.49c-.009.015-.022.03-.03.045h.03V32.49a4.51,4.51,0,0,1,4.094-2.257c2.988,0,5.229,1.953,5.229,6.148ZM29.638,23.969a2.367,2.367,0,1,0-.06,4.721h.029a2.368,2.368,0,1,0,.03-4.721Zm-2.3,20.247h4.541V30.554H27.338Z" transform="translate(-27.068 -23.969)"/></g></svg>