<svg xmlns="http://www.w3.org/2000/svg" width="22.012" height="22.012" viewBox="0 0 22.012 22.012"><defs><style>.a{fill:#fff;}.b{fill:#454c3a;}</style></defs><ellipse class="a" cx="11.006" cy="11.006" rx="11.006" ry="11.006" transform="translate(0 0)"/><g transform="translate(5.311 4.703)"><path class="b" d="M39.34,31.158V35.7H36.709V31.462c0-1.063-.38-1.789-1.332-1.789a1.439,1.439,0,0,0-1.349.962,1.8,1.8,0,0,0-.087.641V35.7H31.309s.035-7.17,0-7.912H33.94V28.9c-.005.009-.013.017-.017.026h.017V28.9A2.612,2.612,0,0,1,36.311,27.6c1.731,0,3.028,1.131,3.028,3.561ZM28.557,23.969a1.371,1.371,0,1,0-.035,2.734h.017a1.371,1.371,0,1,0,.017-2.734ZM27.224,35.7h2.63V27.783h-2.63Z" transform="translate(-27.068 -23.969)"/></g></svg>