<svg xmlns="http://www.w3.org/2000/svg" width="54.227" height="72.403" viewBox="0 0 54.227 72.403"><defs><style>.a{fill:#db8415;}</style></defs><path class="a" d="M124.19,269.126a7.446,7.446,0,0,0-9.03,11.689l7.53,7.53a2.121,2.121,0,0,0,3,0l7.53-7.53a7.445,7.445,0,0,0-9.029-11.689Zm6.029,8.689-6.029,6.029-6.03-6.029a3.2,3.2,0,0,1,4.53-4.53,2.122,2.122,0,0,0,3,0,3.2,3.2,0,0,1,4.53,4.53Zm0,0" transform="translate(-97.077 -230.194)"/><path class="a" d="M36.492,28.76a15.753,15.753,0,1,0-17.755,0C2.423,34.427.5,49.617.5,54.378V62.36A10.055,10.055,0,0,0,10.545,72.4h34.14A10.055,10.055,0,0,0,54.728,62.36V54.376c0-4.862-2.187-20.042-18.236-25.616ZM16.1,15.753A11.511,11.511,0,1,1,27.615,27.265,11.524,11.524,0,0,1,16.1,15.753ZM50.485,62.36a5.808,5.808,0,0,1-5.8,5.8H36.643A2.361,2.361,0,0,1,34.28,65.8a2.478,2.478,0,0,1,2.48-2.48h6.759a2.121,2.121,0,0,0,2.121-2.121V52.106a2.121,2.121,0,1,0-4.242,0v6.967H36.759A6.718,6.718,0,0,0,30.037,65.8a6.6,6.6,0,0,0,.436,2.364H24.734a6.662,6.662,0,0,0-6.208-9.088H13.831V52.106a2.121,2.121,0,0,0-4.242,0v9.088a2.121,2.121,0,0,0,2.121,2.121h6.816a2.423,2.423,0,0,1,0,4.846H10.545a5.808,5.808,0,0,1-5.8-5.8V54.378a22.871,22.871,0,0,1,45.742,0Zm0,0" transform="translate(-0.501 0)"/></svg>