<svg xmlns="http://www.w3.org/2000/svg" width="68.561" height="56.975" viewBox="0 0 68.561 56.975"><defs><style>.a{fill:#db8415;}</style></defs><g transform="translate(60.351 5.612)"><g transform="translate(0 0)"><path class="a" d="M452.974,85.561a1.342,1.342,0,1,0,.391.947A1.346,1.346,0,0,0,452.974,85.561Z" transform="translate(-450.688 -85.169)"/></g></g><g transform="translate(29.594 37.151)"><path class="a" d="M223.285,321.088a1.342,1.342,0,1,0,.391.947A1.346,1.346,0,0,0,223.285,321.088Z" transform="translate(-220.999 -320.695)"/></g><g transform="translate(0 0)"><g transform="translate(0 0)"><path class="a" d="M65.881,53.713a1.339,1.339,0,1,0-2.328,1.324,17.99,17.99,0,0,1-2.921,21.557L59.617,77.61a5.014,5.014,0,0,0-1.143-1.765l-13.76-13.76a9.253,9.253,0,0,0,2.461-1.763l2.639-2.639a1.339,1.339,0,0,0-1.894-1.894l-2.639,2.639a6.521,6.521,0,0,1-4.641,1.923H35.364a1.34,1.34,0,0,0-.947.392l-4.039,4.039a3.076,3.076,0,0,1-4.35-4.35l9.22-9.22A18.023,18.023,0,0,1,56.64,48.2a1.339,1.339,0,0,0,1.3-2.342,20.775,20.775,0,0,0-12.736-2.4A20.409,20.409,0,0,0,34.29,48.435,20.627,20.627,0,0,0,6.042,78.474l.5.5a1.339,1.339,0,0,0,.288.218,5.035,5.035,0,0,0,5.028,4.652c.067,0,.134,0,.2,0,0,.068,0,.136,0,.2a5.042,5.042,0,0,0,5.046,5.044c.067,0,.134,0,.2,0,0,.068,0,.136,0,.2a5.043,5.043,0,0,0,5.047,5.044c.068,0,.136,0,.2,0A5.044,5.044,0,0,0,31.159,98.1l1.872-1.872,2.528,2.528a5.044,5.044,0,0,0,8.606-3.821c.084,0,.168.007.253.007a5.038,5.038,0,0,0,5.04-5.246c.068,0,.136,0,.2,0A5.041,5.041,0,0,0,54.7,84.454c.068,0,.136,0,.2,0a5.044,5.044,0,0,0,4.663-3.118,1.338,1.338,0,0,0,.361-.256l2.6-2.6A20.673,20.673,0,0,0,65.881,53.713ZM11.862,81.172a2.368,2.368,0,0,1-1.675-4.043L12.5,74.822a2.368,2.368,0,0,1,3.349,3.349l-2.308,2.308A2.353,2.353,0,0,1,11.862,81.172Zm3.569,4.55a2.368,2.368,0,0,1,0-3.349l2.308-2.308h0a2.368,2.368,0,0,1,3.349,3.349L18.78,85.722A2.371,2.371,0,0,1,15.431,85.722Zm5.243,5.243a2.368,2.368,0,0,1,0-3.349l2.308-2.308h0a2.368,2.368,0,0,1,3.349,3.349l-2.308,2.308A2.371,2.371,0,0,1,20.674,90.965Zm10.9,2.935-2.308,2.308a2.368,2.368,0,0,1-3.349-3.349l2.308-2.308h0A2.368,2.368,0,0,1,31.574,93.9ZM56.579,81.087a2.368,2.368,0,0,1-3.349,0l-5.574-5.574h0L42.413,70.27a1.339,1.339,0,0,0-1.894,1.894L51.336,82.981a2.368,2.368,0,1,1-3.349,3.349L37.17,75.513a1.339,1.339,0,1,0-1.894,1.894l5.242,5.242h0l5.574,5.574a2.368,2.368,0,1,1-3.349,3.349L37.17,86a1.337,1.337,0,0,0-.342-.247l-1.59-1.59a1.339,1.339,0,1,0-1.894,1.894L40.8,93.514a2.368,2.368,0,1,1-3.349,3.349l-2.838-2.838A5.048,5.048,0,0,0,29.9,87.179c-.068,0-.136,0-.2,0a5.041,5.041,0,0,0-5.039-5.248c-.068,0-.136,0-.2,0a5.041,5.041,0,0,0-5.039-5.248c-.068,0-.136,0-.2,0a5.044,5.044,0,0,0-8.608-3.77L8.294,75.235a5.044,5.044,0,0,0-.743.947A17.949,17.949,0,0,1,32.364,50.307l-8.23,8.23a5.755,5.755,0,0,0,8.138,8.138l3.647-3.647H40.64a9.38,9.38,0,0,0,1.156-.074L56.58,77.738A2.372,2.372,0,0,1,56.579,81.087Z" transform="translate(0 -43.261)"/></g></g></svg>