<svg xmlns="http://www.w3.org/2000/svg" width="117.789" height="101.759" viewBox="0 0 117.789 101.759"><defs><style>.a{fill:#db8415;}</style></defs><g transform="translate(0 0)"><g transform="translate(0 0)"><path class="a" d="M266.087,62.647c0-.013,0-.026,0-.038a28.115,28.115,0,1,1,18.96,26.507c6.308,36.189,34.529,59.527,8.369,40.319C264.406,108.136,266.055,63.465,266.087,62.647Z" transform="translate(-266.061 -34.57)"/><path class="a" d="M28.064,90.648a27.934,27.934,0,0,1-9.081-1.532c6.31,36.189,34.531,59.527,8.37,40.319C-1.655,108.136-.006,63.465.026,62.647c0-.013,0-.026,0-.038A28.039,28.039,0,1,1,28.064,90.648Z" transform="translate(61.686 -34.57)"/></g></g></svg>