<svg xmlns="http://www.w3.org/2000/svg" width="72.222" height="71.213" viewBox="0 0 72.222 71.213"><defs><style>.a{fill:#db8415;}</style></defs><path class="a" d="M399.552,191.752a5.934,5.934,0,1,1,5.934-5.934A5.935,5.935,0,0,1,399.552,191.752Zm0-9.495a3.561,3.561,0,1,0,3.56,3.561A3.561,3.561,0,0,0,399.552,182.257Zm0,0" transform="translate(-346.822 -158.519)"/><path class="a" d="M120.016,191.752a5.934,5.934,0,1,1,5.934-5.934A5.935,5.935,0,0,1,120.016,191.752Zm0-9.495a3.561,3.561,0,1,0,3.561,3.561A3.561,3.561,0,0,0,120.016,182.257Zm0,0" transform="translate(-100.519 -158.519)"/><path class="a" d="M59.851,41.062,71.165,30.777a3.316,3.316,0,0,0-4.43-4.934l-8.522,7.573H46.233L37.3,44.335V14.426H49.169v4.748H68.725l-2.848-7.121,2.848-7.121H55.1V.184H34.926V44.335L25.994,33.416H14.014L5.492,25.841a3.317,3.317,0,0,0-4.433,4.936L12.376,41.062v27.96H.507V71.4H71.719V69.022H59.851ZM55.1,7.3H65.219l-1.9,4.748,1.9,4.748H51.542V14.426H55.1ZM37.3,2.557H52.729v9.5H37.3ZM24.244,69.022H20.684V52.406H18.31V69.022H14.749V40.013L2.657,29.025A.95.95,0,0,1,2.514,27.8a.939.939,0,0,1,1.4-.183l9.2,8.169H24.869l8.825,10.787a.965.965,0,1,1-1.48,1.239l-7.97-9.3Zm21.364,0H26.618V44.929l3.8,4.427a3.339,3.339,0,0,0,4.391.6c.044-.03.082-.067.125-.1v9.671h2.374V49.859c.045.034.084.074.131.1a3.339,3.339,0,0,0,4.382-.6l3.789-4.431Zm11.868,0h-3.56V52.406H51.542V69.022H47.982V38.52l-7.969,9.3a.964.964,0,0,1-1.269.17.961.961,0,0,1-.211-1.409l8.825-10.79H59.115l9.193-8.172a.919.919,0,0,1,.743-.229.932.932,0,0,1,.666.418.942.942,0,0,1-.149,1.214L57.477,40.013Zm0,0" transform="translate(0 -0.184)"/></svg>