<svg xmlns="http://www.w3.org/2000/svg" width="90.275" height="78.261" viewBox="0 0 90.275 78.261"><defs><style>.a{fill:#3b3b38;}</style></defs><path class="a" d="M31.923,81.817a2.039,2.039,0,0,1-2.039,2.039H25.907a2.039,2.039,0,1,1,0-4.078h3.978A2.039,2.039,0,0,1,31.923,81.817ZM8.1,45.513q-.055-1.129-.011-2.308c.283-7.568,5.49-11.905,11.164-13.318a16.032,16.032,0,0,1,6.356-.211c6.034,1.145,11.827,5.535,12.126,13.528C38.021,50.77,35.2,56.881,30,59.97a13.867,13.867,0,0,1-14.174,0c-4.647-2.761-7.393-7.935-7.722-14.4C8.1,45.548,8.1,45.531,8.1,45.513Zm16.079-4.359a9.783,9.783,0,0,0,9.489,2.461c0-.086,0-.172-.008-.258a9.727,9.727,0,0,0-6.819-9.15A18.437,18.437,0,0,1,24.182,41.154ZM21.506,44.24q-.318.277-.652.535a13.937,13.937,0,0,1-8.419,2.908c.684,3.965,2.584,7.062,5.476,8.78a9.791,9.791,0,0,0,10.008,0c2.848-1.692,4.734-4.721,5.444-8.6A13.806,13.806,0,0,1,21.506,44.24ZM12.159,43.6a9.857,9.857,0,0,0,6.2-2.057,10.586,10.586,0,0,0,1.57-1.495,2.074,2.074,0,0,1,.137-.164,13.391,13.391,0,0,0,2.77-6.424c-4.9.224-9.886,3.056-10.595,8.914C12.206,42.7,12.162,43.522,12.159,43.6ZM83.095,79.315c-1.687-9.107-10.285-13.2-18.058-13.2h0c-7.773,0-16.372,4.09-18.059,13.2l-4.805,25.952a2.083,2.083,0,0,0,.437,1.7,2.059,2.059,0,0,0,1.568.755H71.188a2.039,2.039,0,0,0,0-4.078H46.628l4.359-23.552c1.26-6.8,7.964-9.857,14.049-9.857s12.788,3.041,14.048,9.844l4.806,25.944a2.04,2.04,0,1,0,4.01-.751Zm7.178-22.958a2.039,2.039,0,0,1-1.024,1.694,17.936,17.936,0,0,1-7.023,2.224,2.039,2.039,0,1,1-.443-4.054,15.187,15.187,0,0,0,2.554-.5,32.448,32.448,0,0,1-4.994-6.282,15.863,15.863,0,0,1-7.2,10.529,13.867,13.867,0,0,1-14.174,0,15.88,15.88,0,0,1-7.218-10.6,32.632,32.632,0,0,1-5.013,6.348,14.955,14.955,0,0,0,1.853.406,2.039,2.039,0,1,1-.623,4.031,17.746,17.746,0,0,1-6.142-2.108,2.039,2.039,0,0,1-.127-3.459c3.3-2.23,6.568-6.545,8.86-11.6.352-.777,1.462-4.214,1.817-5.039A14.406,14.406,0,0,1,61.463,29.87a17.377,17.377,0,0,1,6.288-.193,14.559,14.559,0,0,1,11.066,8.47c.34.827,1.432,4.255,1.771,4.994,2.293,4.991,5.543,9.259,8.788,11.45A2.039,2.039,0,0,1,90.273,56.356ZM54.3,43.6a9.836,9.836,0,0,0,6.2-2.057,10.616,10.616,0,0,0,1.567-1.491,2.042,2.042,0,0,1,.144-.172,13.39,13.39,0,0,0,2.767-6.421c-4.912.225-9.919,3.075-10.6,8.971C54.34,42.735,54.3,43.522,54.3,43.6Zm21.2,4.26A13.8,13.8,0,0,1,63.643,44.24q-.318.277-.652.535a13.938,13.938,0,0,1-8.419,2.908c.684,3.965,2.584,7.062,5.476,8.78a9.791,9.791,0,0,0,10.008,0C72.9,54.771,74.791,51.743,75.5,47.864Zm.308-4.249c0-.086-.005-.172-.008-.258a9.726,9.726,0,0,0-6.818-9.15,18.445,18.445,0,0,1-2.663,6.947A9.783,9.783,0,0,0,75.809,43.615ZM72.021,79.778H68.044a2.039,2.039,0,1,0,0,4.078h3.978a2.039,2.039,0,0,0,0-4.078ZM22.9,66.118h0c-7.773,0-16.372,4.09-18.059,13.2L.034,105.267a2.083,2.083,0,0,0,.437,1.7,2.059,2.059,0,0,0,1.568.755H28.893a2.039,2.039,0,1,0,0-4.078H4.491L8.85,80.087c1.26-6.8,7.964-9.857,14.049-9.857s12.788,3.041,14.048,9.844a2.041,2.041,0,1,0,4.01-.759C39.27,70.208,30.672,66.118,22.9,66.118Z" transform="translate(0 -29.457)"/></svg>