<svg xmlns="http://www.w3.org/2000/svg" width="22.012" height="22.012" viewBox="0 0 22.012 22.012"><defs><style>.a{fill:#fff;}.b{fill:#454c3a;}</style></defs><ellipse class="a" cx="11.006" cy="11.006" rx="11.006" ry="11.006" transform="translate(0 0)"/><g transform="translate(4.925 6.676)"><path class="b" d="M37.926,35.262a5.249,5.249,0,0,1-1.511.414,2.638,2.638,0,0,0,1.157-1.455,5.267,5.267,0,0,1-1.671.638,2.633,2.633,0,0,0-4.483,2.4A7.468,7.468,0,0,1,26,34.509a2.634,2.634,0,0,0,.814,3.512,2.612,2.612,0,0,1-1.191-.329c0,.011,0,.022,0,.033a2.632,2.632,0,0,0,2.11,2.579,2.641,2.641,0,0,1-1.188.046A2.634,2.634,0,0,0,29,42.178,5.311,5.311,0,0,1,25.1,43.267a7.482,7.482,0,0,0,11.518-6.3c0-.114,0-.228-.008-.34a5.335,5.335,0,0,0,1.313-1.362Z" transform="translate(-25.103 -34.028)"/></g></svg>