<svg xmlns="http://www.w3.org/2000/svg" width="38.006" height="38.006" viewBox="0 0 38.006 38.006"><defs><style>.a{fill:#fff;}</style></defs><ellipse cx="19.003" cy="19.003" rx="19.003" ry="19.003" transform="translate(0 0)"/><g transform="translate(8.503 11.527)"><path class="a" d="M47.243,36.158a9.063,9.063,0,0,1-2.609.714,4.555,4.555,0,0,0,2-2.512,9.093,9.093,0,0,1-2.884,1.1,4.546,4.546,0,0,0-7.74,4.144,12.894,12.894,0,0,1-9.363-4.747,4.547,4.547,0,0,0,1.405,6.065,4.51,4.51,0,0,1-2.057-.569c0,.019,0,.039,0,.058a4.545,4.545,0,0,0,3.644,4.453,4.56,4.56,0,0,1-2.051.079A4.547,4.547,0,0,0,31.828,48.1,9.169,9.169,0,0,1,25.1,49.98,12.918,12.918,0,0,0,44.989,39.1c0-.2,0-.393-.013-.587a9.211,9.211,0,0,0,2.267-2.351Z" transform="translate(-25.103 -34.028)"/></g></svg>