<svg xmlns="http://www.w3.org/2000/svg" width="81.869" height="78.588" viewBox="0 0 81.869 78.588"><defs><style>.a{fill:#db8415;}</style></defs><g transform="translate(0 0)"><path class="a" d="M81.712,53.338a32.274,32.274,0,0,0-25.1-28.3V20.974A5.437,5.437,0,0,0,55.3,10.262H43.789a5.437,5.437,0,0,0-1.312,10.712v4.074A32.107,32.107,0,0,0,26.73,33.71a32.456,32.456,0,0,0-2.715,3.081c-.04,0-.08-.006-.121-.006H12.5a1.6,1.6,0,0,0,0,3.2h9.34A32.056,32.056,0,0,0,19,46.13H1.6a1.6,1.6,0,1,0,0,3.2H18.1a32.512,32.512,0,0,0-.794,6.146H10.234a1.6,1.6,0,1,0,0,3.2h7.122a32.464,32.464,0,0,0,1,6.146H8a1.6,1.6,0,0,0,0,3.2h11.38a32.3,32.3,0,0,0,27,20.678q1.584.156,3.169.156a32.378,32.378,0,0,0,17.627-5.21,1.6,1.6,0,1,0-1.745-2.68A29.1,29.1,0,1,1,74,72.378a1.6,1.6,0,1,0,2.682,1.742A32.4,32.4,0,0,0,81.712,53.338ZM41.551,15.7a2.241,2.241,0,0,1,2.239-2.239H55.3a2.239,2.239,0,1,1,0,4.477H43.789A2.241,2.241,0,0,1,41.551,15.7Zm4.124,8.8V21.136h7.741v3.357A32.581,32.581,0,0,0,45.675,24.5Z" transform="translate(0 -10.262)"/><path class="a" d="M437.369,425.5a1.6,1.6,0,1,0,1.131.468A1.608,1.608,0,0,0,437.369,425.5Z" transform="translate(-366.089 -359.102)"/><path class="a" d="M179.678,144.609a24.806,24.806,0,1,0,24.806,24.806A24.834,24.834,0,0,0,179.678,144.609Zm0,46.413a21.608,21.608,0,1,1,21.608-21.608A21.632,21.632,0,0,1,179.678,191.022Z" transform="translate(-130.107 -123.126)"/><path class="a" d="M275.62,219.88l-7.92,7.92a4.956,4.956,0,0,0-4.39,0l-3.545-3.545a1.6,1.6,0,0,0-2.262,2.261l3.545,3.545a4.969,4.969,0,1,0,8.913,0l7.688-7.688h0l.232-.232a1.6,1.6,0,0,0-2.261-2.261Zm-10.115,14.147a1.771,1.771,0,1,1,1.771-1.771A1.773,1.773,0,0,1,265.505,234.027Z" transform="translate(-215.935 -185.967)"/><path class="a" d="M400.736,289.86h-1.482a1.6,1.6,0,0,0,0,3.2h1.482a1.6,1.6,0,0,0,0-3.2Z" transform="translate(-334.069 -245.151)"/><path class="a" d="M196.162,289.616h-1.481a1.6,1.6,0,0,0,0,3.2h1.481a1.6,1.6,0,0,0,0-3.2Z" transform="translate(-162.208 -244.946)"/><path class="a" d="M301.722,187.5a1.6,1.6,0,0,0,1.6-1.6v-1.481a1.6,1.6,0,0,0-3.2,0V185.9A1.6,1.6,0,0,0,301.722,187.5Z" transform="translate(-252.132 -155.226)"/><path class="a" d="M301.478,387.393a1.6,1.6,0,0,0-1.6,1.6v1.481a1.6,1.6,0,1,0,3.2,0v-1.481A1.6,1.6,0,0,0,301.478,387.393Z" transform="translate(-251.927 -327.088)"/><path class="a" d="M1.6,351.44a1.6,1.6,0,1,0,1.13,2.73,1.6,1.6,0,0,0-1.13-2.73Z" transform="translate(0 -296.884)"/></g></svg>