<svg xmlns="http://www.w3.org/2000/svg" width="38.006" height="38.006" viewBox="0 0 38.006 38.006"><g transform="translate(0)"><path d="M224.113,215.572l6.54-3.767-6.54-3.767Zm0,0" transform="translate(-207.664 -192.803)"/><path d="M19,0a19,19,0,1,0,19,19A19.005,19.005,0,0,0,19,0ZM30.877,19.022a31.364,31.364,0,0,1-.489,5.712A2.976,2.976,0,0,1,28.3,26.828c-1.858.489-9.292.489-9.292.489s-7.414,0-9.292-.509a2.976,2.976,0,0,1-2.093-2.093A31.226,31.226,0,0,1,7.129,19a31.343,31.343,0,0,1,.489-5.712,3.036,3.036,0,0,1,2.093-2.113C11.57,10.689,19,10.689,19,10.689s7.434,0,9.292.509a2.976,2.976,0,0,1,2.093,2.093,29.763,29.763,0,0,1,.489,5.731Zm0,0" transform="translate(0)"/></g></svg>