<svg xmlns="http://www.w3.org/2000/svg" width="22.012" height="22.012" viewBox="0 0 22.012 22.012"><defs><style>.a{fill:#fff;}</style></defs><g transform="translate(0)"><path class="a" d="M224.113,212.4l3.788-2.182-3.788-2.182Zm0,0" transform="translate(-214.586 -199.214)"/><path class="a" d="M11.006,0A11.006,11.006,0,1,0,22.012,11.006,11.007,11.007,0,0,0,11.006,0Zm6.877,11.017a18.166,18.166,0,0,1-.283,3.308,1.723,1.723,0,0,1-1.212,1.212,41.832,41.832,0,0,1-5.382.283,40.335,40.335,0,0,1-5.382-.295,1.724,1.724,0,0,1-1.212-1.212,18.086,18.086,0,0,1-.283-3.308A18.153,18.153,0,0,1,4.412,7.7,1.758,1.758,0,0,1,5.625,6.474a41.832,41.832,0,0,1,5.382-.283,40.25,40.25,0,0,1,5.382.295A1.724,1.724,0,0,1,17.6,7.7a17.239,17.239,0,0,1,.283,3.32Zm0,0" transform="translate(0)"/></g></svg>