<svg xmlns="http://www.w3.org/2000/svg" width="1261.974" height="790.891" viewBox="0 0 1261.974 790.891"><defs><style>.a,.b{fill:#ff5b9c;opacity:0.05;}.b{stroke:#707070;}</style></defs><g transform="translate(-194.426 -47.985)"><path class="a" d="M304.337,59.96S172.472-29.61,122.38,10.2-13.588,81.853,65.13,111.71-73.223,241.09,26.964,274.926s76.332,23.887,133.582,0,69.177-45.779,88.259,0,55.531,61.7,55.531,61.7Z" transform="translate(1113.307 85.074) rotate(-7)"/><path class="b" d="M137.251,62.989S147.307-7.4,205.634.641,276.027,36.843,272,62.989s-10.056,70.172-10.056,70.172-34.191,52.515,0,62.571,102.573,34.191,76.427,62.349-44.247,92.518-88.5,62.349-80.451-70.394-112.63-44.248S40.71,358.644,24.621,320.43s-46.259-106.6,0-114.641-24.135-62.35,0-102.574,84.473-12.068,84.473-12.068Z" transform="translate(748.851 434.992) rotate(-172)"/><path class="b" d="M162.026,58.837S171.419-6.916,225.9.6s65.754,33.816,62,58.239-9.393,65.546-9.393,65.546-31.937,49.054,0,58.447,95.813,31.938,71.39,58.239c-7.058,7.6-31.64,19.2-38.27,29.592-16.118,25.26-15.005,48.684-44.392,28.648C225.9,271.128,198.177,283.034,172.68,315.4s-70.315,21.162-85.345-14.534-114-17.125-80.432-66.087S34.275,133.984,56.82,96.411s78.9-11.272,78.9-11.272Z" transform="matrix(-0.875, -0.485, 0.485, -0.875, 505.909, 751.267)"/><path class="b" d="M174.973,80.3S187.793-9.439,262.148.817,351.89,46.969,346.761,80.3s-50.513,62.378-50.513,62.378L231.784,191.27C175.374,152.81,216,318.755,174.973,352.087S51.9,457.212,31.387,408.5s-58.973-135.892,0-146.149-30.769-79.485,0-130.764S139.076,116.2,139.076,116.2Z" transform="translate(1094.724 300.545) rotate(51)"/></g></svg>