<svg xmlns="http://www.w3.org/2000/svg" width="52.786" height="60.352" viewBox="0 0 52.786 60.352"><defs><style>.a{opacity:0.93;}.b{fill:#df9926;}</style></defs><g class="a" transform="translate(0)"><g transform="translate(0 0)"><g transform="translate(0 0)"><path class="b" d="M62.75.022A1.269,1.269,0,0,1,63,.053l50.237,12.781a1.278,1.278,0,0,1,.991,1.221V60.348H96.039V41.656H79.628V60.374H61.44V1.267A1.278,1.278,0,0,1,62.75.022ZM101.138,35.5h6.2V29.3h-6.205Zm0-10.954h6.2V18.33h-6.205ZM90.2,35.5h6.205V29.3H90.2Zm0-10.954h6.205V18.33H90.2ZM79.257,35.5h6.205V29.3H79.257Zm0-10.966h6.205V18.33H79.257ZM68.323,35.489h6.205V29.283H68.323Zm0-10.954h6.205V18.33H68.323Z" transform="translate(-61.44 -0.021)"/></g></g></g></svg>