<svg xmlns="http://www.w3.org/2000/svg" width="52.787" height="60.353" viewBox="0 0 52.787 60.353"><defs><style>.a{opacity:0.93;}.b{fill:#df9926;}</style></defs><g class="a" transform="translate(0)"><g transform="translate(0 0)"><g transform="translate(0 0)"><path class="b" d="M112.916.022a1.269,1.269,0,0,0-.249.031L62.431,12.834a1.278,1.278,0,0,0-.991,1.221V60.348H79.628V41.656H96.039V60.374h18.188V1.267A1.278,1.278,0,0,0,112.916.022ZM74.528,35.5h-6.2V29.3h6.205Zm0-10.954h-6.2V18.33h6.205ZM85.462,35.5H79.257V29.3h6.205Zm0-10.954H79.257V18.33h6.205ZM96.41,35.5H90.2V29.3H96.41Zm0-10.966H90.2V18.33H96.41Zm10.934,10.954h-6.205V29.284h6.205Zm0-10.954h-6.205V18.33h6.205Z" transform="translate(-61.44 -0.021)"/></g></g></g></svg>