<svg xmlns="http://www.w3.org/2000/svg" width="111.198" height="119.302" viewBox="0 0 111.198 119.302"><defs><style>.a{opacity:0.93;}.b{opacity:0.92;}.c{fill:#df9926;}</style></defs><g class="a"><g class="b" transform="translate(0 0)"><path class="c" d="M111.2,110.662V0H91.918L66.259,26.88v83.782H59.372V33L33.75,59.844v50.818H16.186v-7.288a12.743,12.743,0,1,0-6.888,0v7.288H0v6.888L111.2,119.3Zm-61.182-12.7H43.128v-9.8h6.888Zm0-22.041H43.128v-9.8h6.888ZM85.663,97.958H78.776v-9.8h6.888Zm0-22.041H78.776v-9.8h6.888Zm0-22.041H78.776v-9.8h6.888ZM98.681,97.958H91.793v-9.8h6.888Zm0-22.041H91.793v-9.8h6.888Zm0-22.041H91.793v-9.8h6.888Zm0-22.041H91.793v-9.8h6.888Z" transform="translate(0)"/></g></g></svg>