<svg xmlns="http://www.w3.org/2000/svg" width="19.63" height="20.412" viewBox="0 0 19.63 20.412"><defs><style>.a{fill:none;stroke:#707070;stroke-linecap:round;stroke-linejoin:round;}</style></defs><g transform="translate(0.5 1.142)"><path class="a" d="M15.345,14.821a9.035,9.035,0,0,1-5.03,1.6C4.387,16.42,1,10.21,1,10.21A14.736,14.736,0,0,1,5.285,5.6M8.537,4.186A8.4,8.4,0,0,1,10.315,4c5.928,0,9.315,6.21,9.315,6.21A14.364,14.364,0,0,1,17.8,12.686m-5.691-.831a2.692,2.692,0,0,1-2.487.669,2.444,2.444,0,0,1-1.833-1.68,2.207,2.207,0,0,1,.73-2.28" transform="translate(-1 -0.9)"/><line class="a" x2="17" y2="19" transform="translate(1.225 -0.436)"/></g></svg>