<svg xmlns="http://www.w3.org/2000/svg" width="21.577" height="17.843" viewBox="0 0 21.577 17.843"><defs><style>.a{fill:#fff;}</style></defs><g transform="translate(0 0)"><path class="a" d="M20.955,48.457H16.19l-1.5-3.758a.622.622,0,0,0-.578-.391H7.469a.622.622,0,0,0-.578.391l-1.5,3.758H4.772v-.622a1.867,1.867,0,1,0-3.735,0v.622H.622A.622.622,0,0,0,0,49.079V61.527a.622.622,0,0,0,.622.622H20.955a.622.622,0,0,0,.622-.622V49.079A.622.622,0,0,0,20.955,48.457ZM2.282,47.834a.622.622,0,1,1,1.245,0v.622H2.282Zm18.05,13.071H1.245V49.7H5.809a.622.622,0,0,0,.578-.391l1.5-3.758h5.8l1.5,3.758a.622.622,0,0,0,.578.391h4.564v11.2Z" transform="translate(0 -44.307)"/></g><g transform="translate(5.602 4.979)"><path class="a" d="M138.11,162.462a5.187,5.187,0,1,0,5.187,5.187A5.193,5.193,0,0,0,138.11,162.462Zm0,9.129a3.942,3.942,0,1,1,3.942-3.942A3.946,3.946,0,0,1,138.11,171.591Z" transform="translate(-132.923 -162.462)"/></g><g transform="translate(16.391 6.639)"><path class="a" d="M391.205,201.846h-1.66a.622.622,0,0,0,0,1.245h1.66a.622.622,0,1,0,0-1.245Z" transform="translate(-388.923 -201.846)"/></g></svg>