<svg xmlns="http://www.w3.org/2000/svg" width="28.694" height="28.694" viewBox="0 0 28.694 28.694"><defs><style>.a{fill:#32bea6;}.b{fill:#fff;}</style></defs><g transform="translate(0 0)"><path class="a" d="M28.694,14.35A14.347,14.347,0,1,0,14.347,28.7,14.347,14.347,0,0,0,28.694,14.35Z" transform="translate(0 -0.003)"/><g transform="translate(11.117 6.044)"><path class="b" d="M180.73,166.365a.221.221,0,0,0-.277-.075,25.769,25.769,0,0,1-2.561,1.105.215.215,0,0,1-.028-.033.289.289,0,0,1-.049-.177,32.666,32.666,0,0,1,1.378-5.555,19.323,19.323,0,0,0,.86-3.292.838.838,0,0,0-.3-.669,1.2,1.2,0,0,0-.783-.234,4.1,4.1,0,0,0-1.95.639,10.484,10.484,0,0,0-2.448,2.1.221.221,0,0,0,.247.353c.311-.127,1.873-.767,2.1-.91a.958.958,0,0,1,.48-.176h.012a.232.232,0,0,1,0,.041,1.669,1.669,0,0,1-.082.473c-1.331,4.314-1.979,6.959-1.979,8.085a1.345,1.345,0,0,0,.328.951,1.164,1.164,0,0,0,.89.359,3.106,3.106,0,0,0,1.462-.5,17.038,17.038,0,0,0,2.667-2.2A.221.221,0,0,0,180.73,166.365Z" transform="translate(-174.511 -153.531)"/><path class="b" d="M263.774,69.411a1.113,1.113,0,0,0-.827-.336,1.408,1.408,0,0,0-1.068.485,1.649,1.649,0,0,0-.439,1.154,1.22,1.22,0,0,0,.323.874,1.085,1.085,0,0,0,.816.344,1.411,1.411,0,0,0,1.062-.512,1.687,1.687,0,0,0,.458-1.166A1.164,1.164,0,0,0,263.774,69.411Z" transform="translate(-257.598 -69.075)"/></g></g></svg>