<svg xmlns="http://www.w3.org/2000/svg" width="23.507" height="23.394" viewBox="0 0 23.507 23.394"><defs><style>.a{fill:#fff;font-size:9px;font-family:NotoSans-Regular, Noto Sans;}</style></defs><g transform="translate(0 0)"><g transform="translate(0 0)"><path d="M49.476,5.09c2.156-1.5,3.6-4.863,2.71-5.01-1.178-.2-3.736.663-4.972.814-1.754.175-3.663-1.57-4.735-.6-.872.791.625,3.666,2.966,4.918-6.985,2.834-16.8,17.062.325,18.094C69.47,24.738,57.6,7.852,49.476,5.09Zm2.035,11.22a2.009,2.009,0,0,1-.961,1.4,4.192,4.192,0,0,1-1.967.574v.613a.541.541,0,0,1-.235.431.822.822,0,0,1-.753.092.585.585,0,0,1-.406-.523v-.67q-.18-.028-.357-.068a3.6,3.6,0,0,1-1.705-.866,2.5,2.5,0,0,1-.526-.717q-.049-.1-.087-.208a.915.915,0,0,1-.055-.195.492.492,0,0,1,.076-.324.746.746,0,0,1,.68-.307.692.692,0,0,1,.6.392c.027.066.045.134.074.2A1.2,1.2,0,0,0,46,16.32a1.546,1.546,0,0,0,.306.323,2.236,2.236,0,0,0,.887.4V14.766a5.549,5.549,0,0,1-1.828-.652,1.884,1.884,0,0,1-.617-.612,1.639,1.639,0,0,1-.215-.824,1.675,1.675,0,0,1,.209-.834,2.1,2.1,0,0,1,.572-.648,3.88,3.88,0,0,1,1.88-.688V9.872a.541.541,0,0,1,.235-.431.822.822,0,0,1,.753-.092.585.585,0,0,1,.406.523V10.5q.137.014.272.034a3.776,3.776,0,0,1,1.82.729,2.244,2.244,0,0,1,.557.661,1.906,1.906,0,0,1,.1.211,1.1,1.1,0,0,1,.066.205.487.487,0,0,1-.058.328.733.733,0,0,1-.662.331.707.707,0,0,1-.62-.368c-.029-.063-.044-.129-.074-.192a.964.964,0,0,0-.114-.181,1.224,1.224,0,0,0-.329-.285,2.557,2.557,0,0,0-.957-.309v2.179a10.306,10.306,0,0,1,1.191.292,2.767,2.767,0,0,1,1.453.939c-.049-.071-.1-.141,0,0s.051.074,0,0A1.753,1.753,0,0,1,51.512,16.311Z" transform="translate(-36.238 0)"/><g transform="translate(1.922 6.963)"><ellipse cx="9.903" cy="7.049" rx="9.903" ry="7.049" transform="translate(0 0)"/><text class="a" transform="translate(4.264 10.245)"><tspan x="0" y="0">Rp</tspan></text></g></g></g></svg>