<svg xmlns="http://www.w3.org/2000/svg" width="31.071" height="24.944" viewBox="0 0 31.071 24.944"><defs><style>.a{fill:#ae0721;}.b{fill:#fff;}</style></defs><path class="a" d="M15.442,6.406A8.2,8.2,0,0,1,22.893,2a8.083,8.083,0,0,1,8.128,7.344,6.4,6.4,0,0,1-.263,2.776,12.1,12.1,0,0,1-4.287,6.238L15.442,26.944,4.6,18.357A12.1,12.1,0,0,1,.313,12.12,6.4,6.4,0,0,1,.05,9.344,8.083,8.083,0,0,1,8.177,2,7.911,7.911,0,0,1,15.442,6.406Z" transform="translate(0 -2)"/><path class="b" d="M5.571,13.357A.57.57,0,0,1,5,12.786a5.714,5.714,0,0,1,5.708-5.708.571.571,0,1,1,0,1.142,4.572,4.572,0,0,0-4.566,4.566A.57.57,0,0,1,5.571,13.357Z" transform="translate(-2.146 -4.179)"/></svg>