<svg xmlns="http://www.w3.org/2000/svg" width="28.688" height="28.688" viewBox="0 0 28.688 28.688"><defs><style>.a{fill:#df9926;}.b{fill:#fff;}</style></defs><path class="a" d="M0,14.347A14.344,14.344,0,1,1,14.344,28.691,14.344,14.344,0,0,1,0,14.347Z" transform="translate(0 -0.003)"/><g transform="translate(7.537 4.752)"><path class="b" d="M166.735,116.837a1.725,1.725,0,0,1-1.725,1.725h-7.187a1.725,1.725,0,0,1-1.725-1.725V109.65a1.725,1.725,0,0,1,1.725-1.725h7.187a1.725,1.725,0,0,1,1.725,1.725v7.187Z" transform="translate(-154.61 -106.437)"/><path class="b" d="M138.381,95.291a1.725,1.725,0,0,1-2.439,0l-5.082-5.082a1.726,1.726,0,0,1,0-2.44l5.082-5.082a1.725,1.725,0,0,1,2.439,0l5.082,5.082a1.726,1.726,0,0,1,0,2.44Z" transform="translate(-130.354 -82.182)"/></g><circle class="a" cx="4.744" cy="4.744" r="4.744" transform="translate(9.6 6.815)"/><circle class="b" cx="4.127" cy="4.127" r="4.127" transform="translate(10.217 7.431)"/><path class="a" d="M196.865,142.284l.971,1.967,2.171.316-1.571,1.531.371,2.163-1.942-1.021-1.942,1.021.371-2.163-1.571-1.531,2.171-.316Z" transform="translate(-182.522 -134.057)"/><g transform="translate(8.668 16.511)"><path class="b" d="M153.71,292.675l-3.8-1.349,3.585-5.772h2Z" transform="translate(-149.913 -285.553)"/><path class="b" d="M251.371,292.675l3.8-1.349-3.585-5.772h-2Z" transform="translate(-243.816 -285.553)"/></g></svg>