<svg xmlns="http://www.w3.org/2000/svg" width="89.593" height="77.4" viewBox="0 0 89.593 77.4"><defs><style>.a{fill:#00a49a;}</style></defs><g transform="translate(0 0)"><g transform="translate(0 0)"><path class="a" d="M308.714,55.926c0-.01,0-.019,0-.029a21.385,21.385,0,1,0-14.421,20.162c-4.8,27.526-26.264,45.278-6.366,30.668C309.993,90.526,308.739,56.548,308.714,55.926Z" transform="translate(-219.141 -34.57)"/><path class="a" d="M21.327,77.224a21.247,21.247,0,0,0,6.907-1.165c-4.8,27.526-26.265,45.278-6.367,30.668,22.064-16.2,20.81-50.179,20.785-50.8,0-.01,0-.019,0-.029A21.327,21.327,0,1,0,21.327,77.224Z" transform="translate(0 -34.57)"/></g></g></svg>