<svg xmlns="http://www.w3.org/2000/svg" width="33.7" height="22.097" viewBox="0 0 33.7 22.097"><g transform="translate(0 0)"><path d="M70.1,69a.565.565,0,0,0,.074,0,.585.585,0,0,0,.24-.051l11.867-5.332a.565.565,0,0,0,.325-.634.575.575,0,0,0-.558-.45c-.1,0-9.705-.2-13.969-8.6a2.093,2.093,0,0,0-2.25-1.063l-9.905,2.351a1.5,1.5,0,0,0-1.044.823,1.42,1.42,0,0,0,.069,1.277C56.67,60.472,61.591,67.908,70.1,69ZM55.931,56.51a.368.368,0,0,1,.263-.182L66.1,53.977a.658.658,0,0,1,.155-.018.935.935,0,0,1,.8.485c3.305,6.507,9.58,8.425,12.864,8.99L70.088,67.85c-7.884-1.1-12.5-8.091-14.126-11.064A.319.319,0,0,1,55.931,56.51Z" transform="translate(-48.919 -52.827)"/><rect width="20.942" height="1.196" transform="translate(0 20.901)"/><path d="M211.132,202.554v-1.2l-11.87,5.293v1.2Z" transform="translate(-178.008 -185.75)"/><path d="M33.124,197.383H30.038l-8.855,4.164-.386,0a39.919,39.919,0,0,1-12.89-2.029L0,202.658H20.978Z" transform="translate(0 -182.193)"/><path d="M18.039,148.446c2.3,1.433,8.738,4.763,18.8,4.706l11.72-5.511s-.632,0-1.667-.027l-10.015,4.5-.164-.021c-5.727-.733-9.816-4.331-12.384-7.518l-6.186,2.759C17.56,147.6,17.5,148.112,18.039,148.446Z" transform="translate(-15.783 -134.936)"/></g></svg>