<svg xmlns="http://www.w3.org/2000/svg" width="28.688" height="28.688" viewBox="0 0 28.688 28.688"><defs><style>.a{fill:#32bea6;}.b{fill:#fff;}</style></defs><path class="a" d="M28.688,14.347A14.344,14.344,0,1,0,14.344,28.691,14.344,14.344,0,0,0,28.688,14.347Z" transform="translate(0 -0.003)"/><path class="b" d="M125.591,153.647c-.338-.871-1.026-.733-1.771-.586-.445.093-2.426.672-5.559,3.977a26.491,26.491,0,0,0-2.723,3.3,17.326,17.326,0,0,0-1.155-1.292,16.721,16.721,0,0,0-2.76-2.189,1.269,1.269,0,0,0-1.325,2.164,14.3,14.3,0,0,1,2.291,1.82,19.693,19.693,0,0,1,2.062,2.548,1.269,1.269,0,0,0,2.288-.4c0-.012.506-1.4,3.164-4.205a12.681,12.681,0,0,1,4.064-3.175l.015,0,.046-.021c.085-.032.13-.044.133-.045a.343.343,0,0,1-.037.008v0l.667-.288A1.192,1.192,0,0,0,125.591,153.647Z" transform="translate(-103.35 -144.108)"/></svg>