<svg xmlns="http://www.w3.org/2000/svg" width="29" height="29" viewBox="0 0 29 29"><defs><style>.a{fill:#55acee;}.b{fill:#f1f2f2;}</style></defs><g transform="translate(0.484 0.329)"><circle class="a" cx="14.5" cy="14.5" r="14.5" transform="translate(-0.484 -0.329)"/><g transform="translate(4.597 8.065)"><path class="b" d="M42.517,35.7a7.128,7.128,0,0,1-2.052.562,3.582,3.582,0,0,0,1.571-1.976,7.152,7.152,0,0,1-2.269.867,3.576,3.576,0,0,0-6.088,3.259,10.142,10.142,0,0,1-7.364-3.733,3.577,3.577,0,0,0,1.105,4.77A3.547,3.547,0,0,1,25.8,39c0,.015,0,.03,0,.045a3.575,3.575,0,0,0,2.866,3.5,3.587,3.587,0,0,1-1.613.062A3.577,3.577,0,0,0,30.393,45.1a7.212,7.212,0,0,1-5.29,1.479,10.16,10.16,0,0,0,15.642-8.56q0-.232-.01-.462A7.245,7.245,0,0,0,42.517,35.7Z" transform="translate(-25.103 -34.028)"/></g></g></svg>