<svg xmlns="http://www.w3.org/2000/svg" xmlns:xlink="http://www.w3.org/1999/xlink" width="287.177" height="197.109" viewBox="0 0 287.177 197.109"><defs><style>.a{fill:#00a49a;}.ad,.b{fill:none;stroke:#535461;stroke-miterlimit:10;stroke-width:2px;}.b{opacity:0.33;}.ae,.af,.ag,.ah,.ai,.c,.d,.e,.f,.g,.h,.i,.j,.k,.l{fill:#eaf1d2;}.c{opacity:0.38;}.d{opacity:0.36;}.ad,.e{opacity:0.3;}.f{opacity:0.29;}.g{opacity:0.37;}.h{opacity:0.48;}.i{opacity:0.4;}.j{opacity:0.35;}.k{opacity:0.31;}.l{opacity:0.21;}.aa,.m,.s{opacity:0.1;}.n{fill:aqua;}.o{fill:url(#a);}.p{fill:#333;}.q{fill:#fdb797;}.r{fill:#252a62;}.t{fill:#c9db88;}.u{fill:#72351c;}.v{fill:url(#b);}.w{fill:url(#c);}.x{fill:url(#d);}.y{fill:#6e420b;}.aa,.z{fill:#cce2df;}.ab{fill:#db8415;}.ac{fill:#ffda44;}.ae{opacity:0.23;}.af{opacity:0.43;}.ag{opacity:0.28;}.ah{opacity:0.27;}.ai{opacity:0.2;}.aj{fill:#fff;font-size:17px;font-family:SegoeUI, Segoe UI;}</style><linearGradient id="a" x1="0.5" y1="1" x2="0.5" gradientUnits="objectBoundingBox"><stop offset="0" stop-color="gray" stop-opacity="0.251"/><stop offset="0.54" stop-color="gray" stop-opacity="0.122"/><stop offset="1" stop-color="gray" stop-opacity="0.102"/></linearGradient><linearGradient id="b" x1="0.5" y1="1" x2="0.5" y2="0" xlink:href="#a"/><linearGradient id="c" x1="0.501" y1="1" x2="0.501" y2="0.003" xlink:href="#a"/><linearGradient id="d" x1="0.5" y1="1" x2="0.5" y2="0" xlink:href="#a"/></defs><g transform="translate(0)"><path class="a" d="M212.347,89.919c-3.722,1.63-7.45,3.681-9.345,6.83-1.393,2.317-1.647,4.974-1.876,7.558l-2.755,30.857c-.612,6.876-1.283,13.943-4.852,20.152-6.149,10.7-19.538,16.8-29.59,25.147-16.471,13.678-23.542,36.734-11.172,53.189,5.457,7.193,13.887,12.432,23.664,14.707,5.736,1.313,11.729,1.545,17.668,1.769q74.61,2.721,149.321,2.183c5.914-.044,11.99-.129,17.447-2.018,7.539-2.608,12.957-8.349,16.688-14.445s6.122-12.715,9.651-18.893c7.224-12.614,18.978-22.9,29.219-33.923,5.647-6.076,10.934-12.514,14.1-19.748,5.041-11.5,4.16-25.02-3.719-35.331-3.4-4.456-8.038-8.315-10.355-13.24-3.235-6.886-1.429-14.6-.658-21.975s-.073-15.8-6.823-20.551c-3.725-2.623-8.659-3.658-13.468-4.25-23.021-2.832-46.143,2.773-68.972,6.552-20.144,3.347-40.566,5.262-61,6.789C247.386,82.636,228.9,82.672,212.347,89.919Z" transform="translate(-146.483 -67.165)"/><path class="b" d="M327.68,480.092s-7.494-25.443,1.406-44.169a40.167,40.167,0,0,0,3.249-25.211,67.584,67.584,0,0,0-3.568-11.842" transform="translate(-250.762 -313.477)"/><path class="c" d="M329.341,336.666c0,3.118-5.646,12.159-5.646,12.159s-5.646-9.041-5.646-12.159a5.646,5.646,0,1,1,11.291,0Z" transform="translate(-245.838 -263.094)"/><path class="d" d="M365.428,394.861C363.734,397.479,354.08,402,354.08,402s.175-10.658,1.869-13.276a5.646,5.646,0,1,1,9.479,6.137Z" transform="translate(-272.228 -304.028)"/><path class="e" d="M357.967,503.853c-2.783,1.4-13.387.435-13.387.435s5.514-9.106,8.3-10.516a5.646,5.646,0,1,1,5.085,10.082Z" transform="translate(-265.22 -383.497)"/><path class="f" d="M337.979,591.773c-2.507,1.854-13.129,2.693-13.129,2.693s3.913-9.917,6.418-11.77a5.645,5.645,0,1,1,6.714,9.078Z" transform="translate(-250.778 -449.157)"/><path class="g" d="M303.062,422.145c2.237,2.173,12.656,4.423,12.656,4.423s-2.551-10.349-4.788-12.522a5.646,5.646,0,1,0-7.867,8.1Z" transform="translate(-233.572 -323.561)"/><path class="h" d="M276.078,520.723c2.783,1.4,13.387.435,13.387.435s-5.532-9.113-8.315-10.516a5.646,5.646,0,1,0-5.085,10.082Z" transform="translate(-212.754 -396.024)"/><path class="e" d="M269.67,623.833c2.507,1.854,13.129,2.693,13.129,2.693s-3.913-9.917-6.418-11.77a5.645,5.645,0,1,0-6.714,9.078Z" transform="translate(-208.674 -472.963)"/><path class="b" d="M886.055,426.959s-7.494-25.44,1.4-44.166a40.166,40.166,0,0,0,3.249-25.211,67.585,67.585,0,0,0-3.568-11.842" transform="translate(-659.971 -274.024)"/><path class="i" d="M887.721,283.526c0,3.118-5.646,12.159-5.646,12.159s-5.646-9.041-5.646-12.159a5.646,5.646,0,0,1,11.291,0Z" transform="translate(-654.992 -223.634)"/><path class="d" d="M923.808,341.761c-1.694,2.618-11.348,7.139-11.348,7.139s.175-10.658,1.869-13.276a5.646,5.646,0,0,1,9.479,6.137Z" transform="translate(-679.748 -264.598)"/><path class="j" d="M916.387,450.474c-2.783,1.4-13.387.435-13.387.435s5.532-9.113,8.315-10.516a5.646,5.646,0,1,1,5.072,10.081Z" transform="translate(-672.723 -343.799)"/><path class="k" d="M896.359,538.624c-2.507,1.854-13.129,2.693-13.129,2.693s3.913-9.917,6.418-11.77a5.645,5.645,0,1,1,6.712,9.078Z" transform="translate(-659.845 -409.69)"/><path class="c" d="M861.468,369.008c2.237,2.173,12.656,4.423,12.656,4.423s-2.551-10.344-4.781-12.529a5.651,5.651,0,1,0-7.875,8.107Z" transform="translate(-642.679 -284.096)"/><path class="l" d="M834.495,467.583c2.783,1.4,13.387.435,13.387.435s-5.522-9.113-8.3-10.516a5.646,5.646,0,1,0-5.084,10.081Z" transform="translate(-621.835 -356.564)"/><path class="e" d="M828.05,570.693c2.507,1.854,13.129,2.693,13.129,2.693s-3.913-9.917-6.418-11.77a5.645,5.645,0,1,0-6.714,9.077Z" transform="translate(-617.742 -433.504)"/><g class="m" transform="translate(17.438 196.604)"><path class="n" d="M115.724,831.365c2.858-1.03.35-.19-.144-.026a.371.371,0,0,0,.144.026Z" transform="translate(-115.58 -830.861)"/></g><g class="m" transform="translate(17.361 197.057)"><path class="n" d="M115.357,832.643l-.077-.023v.051Z" transform="translate(-115.28 -832.62)"/></g><path class="o" d="M684.758,325.281a.192.192,0,0,1,.018-.1c.018-.034,0-.018,0-.026a1.243,1.243,0,0,0,0-.193s-.345-.662-.747-1.57h0a12.391,12.391,0,0,1-1.2-4.091s-6.016-21.053-10.084-23.352c0,0-3.347-5.96-3.311-9.314a18.962,18.962,0,0,0-.257-3.2c-.595-3.7-1.586-10.781-.68-12.076,1.151-1.645,3.069-8.8-1.511-14.205l.8-.124s-.044-.054-.116-.16l.116-.018s-1.771-2.126-1.771-6.825a28.834,28.834,0,0,1,2.479-10.691q.365-.886.669-1.753a8.811,8.811,0,0,0,2.317-1.668l.082-.085.1-.09a15.031,15.031,0,0,0,3.429-6.243,29.724,29.724,0,0,0,1.249-6.469,61.169,61.169,0,0,0,0-7.175c-.116-2.791-.257-5.664-1.375-8.21a19.824,19.824,0,0,1-1.3-2.994,17.517,17.517,0,0,1-.312-2.2,11.739,11.739,0,0,0-3.983-7.551A9.261,9.261,0,0,0,661.18,193a13.357,13.357,0,0,0-4.376,2.376,14.806,14.806,0,0,0-1.617,1.413c-1.614,1.583-2.832,3.658-1.663,5.839q.129.237.275.463a7.96,7.96,0,0,0,3.751,11.6l.208.366h.023a13.229,13.229,0,0,1,1.449,3.6,11.088,11.088,0,0,0-2.06,1.9,37.2,37.2,0,0,0-3.846,5.27,18.786,18.786,0,0,1-2.041,2.87c-.945,1.117-2.059,3.3-2.059,7.355v.924c-4.987,5.429-24.433,1.449-24.433,1.449-2.343-.911-5.069.188-6.346.834a.772.772,0,0,0-.257,1.182c2.06,2.482,7.126.994,7.126.994s18.221,3.185,19.637,4.245c.963.723,2.665.134,3.653-.317l-.2.229.257-.126-1.4,12.6h.021l-.021.178s.324-.028.842-.064l.433,1.12H648.5l.448,1.061h0l.368.873c-1.1,3.975-5.53,20.338-5.064,24.073,0,0-2.832,6.722-1.769,10.439,0,0-3.892,27.953-6.369,29.368l.348.157c-2.644,1.511-8.4,4.353-12.378,3.027,0,0-2.477.708,1.416,3.184,0,0,15.922,4.245,18.046,2.832l-.353-6.119.18.064c.026-.345.257-2.876,1.236-4.029,0,0,6.369-17.338,6.016-26.184l5.944-14.365a16.52,16.52,0,0,0,2.016,3.929l2.477,6.369,4.07,5.308s12.738,20.168,11.842,26.184l.3.075c-1.192,2.121-4.158,6.469-8.439,6.469,0,0-3.715,3.892,3.184,3.362,0,0,8.668-.53,15.037-4.07Z" transform="translate(-464.084 -160.389)"/><path class="p" d="M661.376,701.33s-8.189,5.46-13.307,3.753c0,0-2.389.682,1.364,3.071,0,0,15.356,4.1,17.4,2.729l-.515-8.871Z" transform="translate(-486.923 -538.072)"/><path class="p" d="M823.822,698.441s-3.241,7.337-8.7,7.337c0,0-3.584,3.753,3.071,3.241,0,0,8.359-.515,14.5-3.923l-2.937-7.656Z" transform="translate(-609.151 -535.183)"/><path class="q" d="M623.1,372.959l1.287,3.329,8.354-.6-.855-5.63Z" transform="translate(-438.6 -274.791)"/><path class="r" d="M708.257,461.42s-5.63,19.972-5.118,24.058c0,0-2.729,6.482-1.707,10.066,0,0-3.753,26.956-6.142,28.318,0,0,6.951,3.146,7.165,3.071,2.389-.852-.17,0-.17,0s.17-2.729,1.195-3.923c0,0,6.143-16.721,5.8-25.249l8.189-19.792Z" transform="translate(-521.99 -359.924)"/><path class="s" d="M708.257,461.42s-5.63,19.972-5.118,24.058c0,0-2.729,6.482-1.707,10.066,0,0-3.753,26.956-6.142,28.318,0,0,6.951,3.146,7.165,3.071,2.389-.852-.17,0-.17,0s.17-2.729,1.195-3.923c0,0,6.143-16.721,5.8-25.249l8.189-19.792Z" transform="translate(-521.99 -359.924)"/><path class="r" d="M741.69,448.076l3.753,8.871s2.9,14.5,5.973,18.425l2.389,6.142,3.926,5.12s12.285,19.449,11.43,25.249c0,0,7.677,2.06,7.507-.515,0,0-1.877-3.583-1.877-5.46,0,0-5.8-20.3-9.726-22.521,0,0-3.223-5.749-3.192-8.982a18.294,18.294,0,0,0-.258-3.089c-.574-3.568-1.529-10.4-.654-11.644,1.194-1.707,3.241-9.553-2.559-14.844Z" transform="translate(-555.595 -347.605)"/><path class="s" d="M822,511.39s-1.877-3.584-1.877-5.46c0,0-5.8-20.3-9.726-22.521,0,0-3.223-5.749-3.192-8.982a18.288,18.288,0,0,0-.257-3.089c-.574-3.568-1.529-10.4-.654-11.644,1.195-1.707,3.241-9.553-2.559-14.844l-.989.193c5.545,5.285,3.535,12.965,2.356,14.651s1.03,13.819,1.03,13.819c-.852,2.9,3.071,9.9,3.071,9.9,3.923,2.219,9.726,22.521,9.726,22.521,0,1.877,1.877,5.46,1.877,5.46.057.844-.744,1.187-1.841,1.267C820.621,512.752,822.081,512.52,822,511.39Z" transform="translate(-600.774 -347.62)"/><path class="q" d="M772.17,273.606s3.241,4.948,2.389,6.482l8.359-2.06s-2.219-2.389-1.707-8.189Z" transform="translate(-578.61 -217.664)"/><path class="s" d="M758,297.786s-6.995-1.545-11.43,3.753a35.914,35.914,0,0,0-3.71,5.082,18.123,18.123,0,0,1-1.967,2.767c-1.109,1.31-2.469,4.134-1.83,9.893L737,337.706s5.973-.515,7.507,0,12.285-1.195,12.285-1.195-4.266-5.118.682-17.06A28.983,28.983,0,0,0,758,297.786Z" transform="translate(-552.518 -238.26)"/><path class="t" d="M761.436,297.156s-8.14-1.768-13.3,4.3a41.124,41.124,0,0,0-4.317,5.816,20.742,20.742,0,0,1-2.289,3.167c-1.291,1.5-2.873,4.732-2.13,11.322L737,342.842s6.951-.589,8.736,0,14.3-1.367,14.3-1.367-4.964-5.857.794-19.524A32.661,32.661,0,0,0,761.436,297.156Z" transform="translate(-553.165 -237.77)"/><path class="s" d="M752.8,359s-6.655,9.561-9.721,11.268l-1.707.852S752.115,359,752.8,359Z" transform="translate(-556.023 -283.871)"/><path class="q" d="M662.021,339.437s4.376-1.722,6.253,3.988a1.37,1.37,0,0,1-.294,1.357l-10.225,11.034s-2.9,1.707-4.266.682-18.937-4.1-18.937-4.1-4.878,1.434-6.871-.958a.739.739,0,0,1,.239-1.138c.953-.481,2.541-.2,4.415-.435a15.538,15.538,0,0,1,4.325.09c5.852.917,19.637,2.43,21.777-3.19C661.166,339.609,662.021,339.437,662.021,339.437Z" transform="translate(-471.882 -269.163)"/><path class="s" d="M761.24,339.565s5.288-.852,6.482,4.436v-.342S766.188,337.861,761.24,339.565Z" transform="translate(-570.71 -269.207)"/><path class="s" d="M781.884,271.22l-9.054,3.753s.409.623.9,1.5a9.043,9.043,0,0,0,3.112.126,6.554,6.554,0,0,0,4.948-1.877A16.167,16.167,0,0,1,781.884,271.22Z" transform="translate(-579.138 -218.689)"/><ellipse class="q" cx="7.677" cy="7.677" rx="7.677" ry="7.677" transform="translate(189.61 42.635)"/><path class="s" d="M765.935,221.438c.167.592-.324,1.14-.68,1.642-1.243,1.758-1.014,4.152-.445,6.227a4.15,4.15,0,0,0,1.6,2.631,9.33,9.33,0,0,0,2.433.62,5.547,5.547,0,0,1,3.347,2.881,10.723,10.723,0,0,1,1.03,4.392,22.219,22.219,0,0,1-3.025,12.514,7.379,7.379,0,0,0,6.269-2.289,14.457,14.457,0,0,0,3.306-6.019,28.653,28.653,0,0,0,1.2-6.238,59.124,59.124,0,0,0,0-6.92,21.671,21.671,0,0,0-1.326-7.916,19.312,19.312,0,0,1-1.254-2.888,16.925,16.925,0,0,1-.3-2.116,11.327,11.327,0,0,0-3.841-7.283,8.954,8.954,0,0,0-7.9-1.836,12.828,12.828,0,0,0-4.212,2.291c-2.075,1.578-4.456,4.119-2.991,6.822A6.781,6.781,0,0,0,765.935,221.438Z" transform="translate(-568.422 -172.163)"/><path class="u" d="M766.58,220.8c.167.592-.324,1.14-.68,1.642-1.243,1.758-1.014,4.152-.445,6.227a4.15,4.15,0,0,0,1.6,2.631,9.33,9.33,0,0,0,2.433.62,5.546,5.546,0,0,1,3.347,2.881,10.725,10.725,0,0,1,1.03,4.392,22.22,22.22,0,0,1-3.03,12.522,7.379,7.379,0,0,0,6.269-2.289,14.457,14.457,0,0,0,3.306-6.019,28.663,28.663,0,0,0,1.2-6.238,59.084,59.084,0,0,0,0-6.92,21.668,21.668,0,0,0-1.326-7.916,19.323,19.323,0,0,1-1.254-2.888,16.879,16.879,0,0,1-.3-2.116,11.328,11.328,0,0,0-3.841-7.283,8.954,8.954,0,0,0-7.9-1.836,12.827,12.827,0,0,0-4.212,2.291c-2.075,1.578-4.456,4.119-2.991,6.822A6.8,6.8,0,0,0,766.58,220.8Z" transform="translate(-568.891 -171.695)"/><path class="s" d="M790.4,401.625s3.241,0,4.436-1.545" transform="translate(-592.136 -314.375)"/><path class="s" d="M790.4,406.265s3.241,0,4.436-1.545" transform="translate(-592.136 -317.821)"/><path class="s" d="M795.439,334.51s-.515,4.1-2.389,5.973" transform="translate(-594.132 -265.685)"/><g class="m" transform="translate(124.597 171.015)"><path class="v" d="M514.822,731.5v-.041l-.062.021Z" transform="translate(-514.76 -731.46)"/></g><g class="m" transform="translate(123.376 170.653)"><path class="w" d="M511.2,730.458a.3.3,0,0,0,.116-.021C510.915,730.3,508.91,729.639,511.2,730.458Z" transform="translate(-510.12 -730.055)"/></g><path class="x" d="M411.862,247.967c-1.3-.636-4.083-1.722-6.472-.824,0,0-22.912,4.541-25.8-2.8q-.2-.515-.394-.991a10.669,10.669,0,0,0,.075-1.449,10.193,10.193,0,0,0-.126-1.779,6.224,6.224,0,0,0-.971-2.4,15.6,15.6,0,0,1-1.388-3.015,11.412,11.412,0,0,0-6.547-6.693,10.886,10.886,0,0,1,1.521-3.975h.023l.214-.36a7.867,7.867,0,0,0,5.066-7.283,7.642,7.642,0,0,0-1.31-4.278c2.422-.389,1.593-2.449.095-4.215a11.526,11.526,0,0,0-.929-.973,10.854,10.854,0,0,0-5.311-2.873c-.239-.051-.481-.09-.723-.124A10.04,10.04,0,0,0,360.153,205a4.5,4.5,0,0,0-4.289-3,4.378,4.378,0,1,0,0,8.753h.257a9.171,9.171,0,0,0-.257,2.1A9.5,9.5,0,0,0,363.209,222l.075.07a1.575,1.575,0,0,1-.023.219l.018.015a10.172,10.172,0,0,1-1.2,3.692l-.16-.039c-3.329,2.317-4.534,5.831-4.505,9.492a22.013,22.013,0,0,0,2.059,9.01,8.237,8.237,0,0,1,.649,3.347c-.064,3.965-1.89,8.722-3.13,11.507-.492,1.1-7.62,18.342-7.62,18.342l.162-.041-.162.391a8.912,8.912,0,0,1,4.654.147,7.617,7.617,0,0,0,5.834-.824,7.615,7.615,0,0,0,.971,2.338c.924,1.287-.085,8.269-.693,11.922a18.141,18.141,0,0,0-.257,3.161c.033,3.313-3.375,9.2-3.375,9.2C352.35,306.218,346.216,327,346.216,327a11.948,11.948,0,0,1-1.223,4.039h0c-.407.9-.772,1.545-.772,1.545a1.147,1.147,0,0,0,0,.19v.026a.965.965,0,0,0,.018.1l-2.368,5.975c6.5,3.493,15.336,4.019,15.336,4.019,7.036.515,3.249-3.318,3.249-3.318-4.376,0-7.388-4.294-8.606-6.387l.306-.075c-.9-5.939,12.1-25.852,12.1-25.852l4.15-5.241,2.525-6.315a16.19,16.19,0,0,0,2.06-3.877L379.049,306c-.36,8.735,6.135,25.852,6.135,25.852,1.007,1.138,1.233,3.638,1.259,3.977l.183-.062-.36,6.042c2.165,1.4,18.4-2.8,18.4-2.8,3.97-2.446,1.444-3.143,1.444-3.143-4.052,1.308-9.927-1.5-12.614-2.989l.353-.154c-2.525-1.4-6.5-29-6.5-29,1.084-3.668-1.8-10.3-1.8-10.3.329-2.549-1.745-11.108-3.419-17.423a34.5,34.5,0,0,0,6.4-.654c-.134-.085-.258-.175-.394-.257.257-.049.394-.08.394-.08-5.576-3.566-8.753-15.608-10.125-22.431a7.2,7.2,0,0,0,1.1.772l1.8.873-.206-.224c1.007.445,2.742,1.03,3.725.311,1.444-1.048,20.026-4.191,20.026-4.191s5.149,1.47,7.267-.981a.749.749,0,0,0-.265-1.187Z" transform="translate(-262.466 -167.288)"/><ellipse class="y" cx="9.214" cy="9.214" rx="9.214" ry="9.214" transform="translate(94.399 38.112)"/><path class="q" d="M432.338,275.6s-3.241,4.948-2.389,6.482l-8.359-2.06s2.219-2.389,1.707-8.189Z" transform="translate(-321.714 -219.142)"/><path class="s" d="M427.55,273.21l9.041,3.753s-.409.623-.9,1.5a9.043,9.043,0,0,1-3.112.126,6.553,6.553,0,0,1-4.948-1.877A17.29,17.29,0,0,0,427.55,273.21Z" transform="translate(-326.105 -220.166)"/><ellipse class="q" cx="7.677" cy="7.677" rx="7.677" ry="7.677" transform="translate(99.231 43.148)"/><ellipse class="y" cx="4.266" cy="4.266" rx="4.266" ry="4.266" transform="translate(89.841 36.748)"/><path class="s" d="M419.81,225.546c-1.92-.033-4.1-.42-5.543.85-1.03.911-1.308,2.384-1.658,3.717-.515,2-1.694,4.2-3.743,4.5a4.111,4.111,0,0,1-3.4-1.341,11.459,11.459,0,0,1-2.005-3.195,7.826,7.826,0,0,1-1.03-3.576,7.519,7.519,0,0,1,1.818-4.029,16.779,16.779,0,0,1,1.789-2.111,10.04,10.04,0,0,1,14.841,1C422.479,223.3,423.275,225.605,419.81,225.546Z" transform="translate(-307.552 -178.838)"/><path class="y" d="M419.15,224.886c-1.921-.033-4.1-.42-5.543.85-1.03.911-1.308,2.384-1.658,3.717-.515,2-1.694,4.2-3.743,4.5a4.111,4.111,0,0,1-3.4-1.341,11.46,11.46,0,0,1-2.005-3.195,7.826,7.826,0,0,1-1.03-3.576,7.519,7.519,0,0,1,1.818-4.029,16.783,16.783,0,0,1,1.789-2.111,10.04,10.04,0,0,1,14.841,1C421.817,222.644,422.615,224.945,419.15,224.886Z" transform="translate(-307.069 -178.348)"/><path class="p" d="M517.84,703.32s8.189,5.46,13.307,3.753c0,0,2.389.682-1.364,3.071,0,0-15.356,4.1-17.4,2.729L512.9,704Z" transform="translate(-388.088 -539.55)"/><path class="p" d="M358.221,700.431s3.241,7.337,8.7,7.337c0,0,3.584,3.753-3.071,3.241,0,0-8.359-.515-14.5-3.923l2.937-7.656Z" transform="translate(-268.69 -536.661)"/><path class="z" d="M463.281,463.41s5.63,19.962,5.118,24.055c0,0,2.729,6.482,1.707,10.066,0,0,3.753,26.956,6.142,28.318,0,0-6.951,3.146-7.164,3.071-2.389-.852.17,0,.17,0s-.17-2.729-1.195-3.923c0,0-6.142-16.721-5.8-25.25l-8.189-19.792Z" transform="translate(-345.336 -361.402)"/><path class="aa" d="M463.281,463.41s5.63,19.962,5.118,24.055c0,0,2.729,6.482,1.707,10.066,0,0,3.753,26.956,6.142,28.318,0,0-6.951,3.146-7.164,3.071-2.389-.852.17,0,.17,0s-.17-2.729-1.195-3.923c0,0-6.142-16.721-5.8-25.25l-8.189-19.792Z" transform="translate(-346.088 -355.615)"/><path class="z" d="M392.938,450.059l-3.753,8.871s-2.9,14.5-5.973,18.425l-2.389,6.142-3.923,5.118s-12.285,19.449-11.43,25.25c0,0-7.677,2.06-7.507-.515,0,0,1.877-3.584,1.877-5.46,0,0,5.8-20.3,9.726-22.521,0,0,3.223-5.749,3.192-8.982a18.288,18.288,0,0,1,.257-3.089c.574-3.568,1.529-10.4.654-11.644-1.195-1.707-3.241-9.553,2.559-14.844Z" transform="translate(-274.784 -349.075)"/><path class="s" d="M357.99,513.37s1.877-3.584,1.877-5.46c0,0,5.8-20.3,9.726-22.521,0,0,3.223-5.749,3.192-8.982a18.3,18.3,0,0,1,.257-3.089c.574-3.568,1.529-10.4.654-11.644-1.195-1.707-3.241-9.554,2.559-14.844l.989.193c-5.563,5.288-3.55,12.98-2.371,14.653s-1.03,13.819-1.03,13.819c.852,2.9-3.071,9.9-3.071,9.9-3.923,2.219-9.726,22.521-9.726,22.521,0,1.877-1.877,5.46-1.877,5.46-.057.844.744,1.187,1.841,1.267C359.365,514.734,357.9,514.5,357.99,513.37Z" transform="translate(-275.007 -349.09)"/><path class="s" d="M388.752,302l6.341,1.994c3.6,1.136,6.5,4.514,7.723,8.982a22.88,22.88,0,0,0,1.31,3.764,9.314,9.314,0,0,1,.917,3,18.037,18.037,0,0,1-1.514,9.515s2.886,27.694,10.38,34.018c0,0-7.314,2.152-13.724-.51a11.687,11.687,0,0,0-12.692,2.336l-.16.148a5.852,5.852,0,0,1-6.032,1.484,6.487,6.487,0,0,0-4.4-.181s6.742-21.515,7.208-22.9c1.57-4.669,4.145-13.776,2.343-18.955C383.946,317.494,383.03,306.81,388.752,302Z" transform="translate(-288.614 -241.545)"/><path class="ab" d="M388.752,300.71l6.341,2c3.6,1.142,6.5,4.538,7.723,9.029a23.079,23.079,0,0,0,1.31,3.784,9.4,9.4,0,0,1,.917,3.02,18.217,18.217,0,0,1-1.514,9.565s2.886,27.839,10.38,34.2c0,0-7.314,2.163-13.724-.513a11.641,11.641,0,0,0-12.692,2.348l-.16.149a5.828,5.828,0,0,1-6.032,1.482,6.456,6.456,0,0,0-4.4-.182s6.742-21.627,7.208-23.017c1.57-4.7,4.145-13.852,2.343-19.071C383.946,316.272,383.03,305.972,388.752,300.71Z" transform="translate(-288.614 -240.587)"/><path class="s" d="M449.76,361s6.655,9.553,9.726,11.26l1.707.852S450.442,361,449.76,361Z" transform="translate(-342.346 -285.356)"/><path class="q" d="M455.7,341.427s-4.376-1.722-6.253,3.988a1.369,1.369,0,0,0,.294,1.357l10.225,11.036s2.9,1.707,4.266.682,18.937-4.1,18.937-4.1,4.845,1.424,6.85-.935a.757.757,0,0,0-.219-1.164c-1.058-.533-2.994-.515-5.077-.693a8.239,8.239,0,0,0-2.157.1c-4.454.79-20.93,3.246-23.283-2.937C456.559,341.6,455.7,341.427,455.7,341.427Z" transform="translate(-341.579 -270.64)"/><path class="s" d="M455.582,341.553s-5.288-.852-6.482,4.436v-.342S450.634,339.846,455.582,341.553Z" transform="translate(-341.935 -270.682)"/><path class="ac" d="M579.754,256.687a18.937,18.937,0,1,1-18.937-18.937A18.937,18.937,0,0,1,579.754,256.687Z" transform="translate(-409.311 -193.835)"/><path class="ad" d="M602.341,572.2s-4.057-13.773.772-23.911a21.757,21.757,0,0,0,1.758-13.644,36.583,36.583,0,0,0-1.933-6.405" transform="translate(-453.119 -409.542)"/><path class="ae" d="M603.242,494.512c0,1.689-3.056,6.583-3.056,6.583s-3.056-4.891-3.056-6.583a3.057,3.057,0,0,1,6.114,0Z" transform="translate(-450.437 -382.227)"/><path class="l" d="M622.772,526.032c-.916,1.416-6.142,3.862-6.142,3.862s.1-5.769,1.012-7.188a3.057,3.057,0,1,1,5.131,3.323Z" transform="translate(-464.719 -404.396)"/><path class="af" d="M618.7,585.024c-1.506.772-7.255.234-7.255.234s2.994-4.933,4.5-5.695a3.056,3.056,0,0,1,2.752,5.458Z" transform="translate(-460.876 -447.41)"/><path class="f" d="M607.9,632.636c-1.357,1-7.11,1.457-7.11,1.457s2.119-5.368,3.475-6.372a3.056,3.056,0,0,1,3.635,4.914Z" transform="translate(-453.075 -482.968)"/><path class="ag" d="M588.81,540.577c1.21,1.176,6.853,2.394,6.853,2.394s-1.382-5.6-2.592-6.778a3.056,3.056,0,1,0-4.261,4.376Z" transform="translate(-443.571 -414.748)"/><path class="ah" d="M574.452,594.162c1.506.772,7.255.234,7.255.234s-3-4.932-4.492-5.692a3.056,3.056,0,0,0-2.752,5.458Z" transform="translate(-432.538 -454.197)"/><path class="ai" d="M570.936,649.986c1.357,1,7.111,1.457,7.111,1.457s-2.119-5.367-3.475-6.371a3.056,3.056,0,0,0-3.635,4.914Z" transform="translate(-430.289 -495.851)"/><text class="aj" transform="translate(149.196 65.321) rotate(9)"><tspan x="-10.081" y="0">Rp</tspan></text></g></svg>