<svg xmlns="http://www.w3.org/2000/svg" width="260.647" height="189.628" viewBox="0 0 260.647 189.628"><defs><style>.a{fill:#00a49a;}.b{fill:#6c63ff;}.b,.d,.m{opacity:0.1;}.c{fill:#ced7e7;}.e{fill:#fed253;}.f,.g{fill:#f1c58d;}.g,.i,.n{opacity:0.05;}.h,.i{fill:#bedaa7;}.j{fill:#896363;}.k{opacity:0.79;}.l{fill:#cce2df;}.o{fill:#454c3a;}.p{fill:#e39739;}</style></defs><path class="a" d="M320.094,266.066c-6.456,13.323-19.572,22.231-33.159,28.106a122.347,122.347,0,0,1-34.139,9.11q-3.379.4-6.779.622a131.478,131.478,0,0,1-17.4-.019q-5.226-.348-10.415-1.111a131.362,131.362,0,0,1-34.824-10.141q-4.8-2.161-9.4-4.718a120.279,120.279,0,0,1-14.7-9.611q-1.546-1.181-3.053-2.414l-.413-.338c-.79-.651-1.573-1.317-2.367-1.964a34.415,34.415,0,0,0-4.2-3.009c-.1-.058-.2-.117-.3-.173-.272-.158-.549-.306-.831-.447a19,19,0,0,0-1.784-.788,23.369,23.369,0,0,0-8.862-1.393c-.506,0-1.011.034-1.519.068h0c-.71.049-1.422.122-2.132.214l-.262.036a48.315,48.315,0,0,0-6.692,1.437c-3.388.972-6.716,2.188-10.065,3.284h0c-1.422.469-2.846.916-4.283,1.317l-.316.087a46.883,46.883,0,0,1-6.225,1.3,34.685,34.685,0,0,1-14.246-1.147l-.16-.046-.3-.087-.406-.126q-1.021-.321-2.025-.7l-.406-.156q-.972-.374-1.9-.8l-.406-.185q-.972-.452-1.9-.955c-.224-.117-.445-.243-.664-.362q-.992-.554-1.945-1.162-1.011-.644-1.979-1.344-.447-.321-.885-.659a39.218,39.218,0,0,1-4.708-4.246c-.08-.08-.156-.163-.231-.243-.386-.418-.766-.843-1.133-1.279-.136-.16-.272-.321-.406-.486q-.654-.8-1.262-1.631c-.061-.08-.119-.163-.177-.243a35.144,35.144,0,0,1-4.1-7.414c-.034-.08-.066-.163-.095-.243q-.486-1.252-.887-2.545c-.109-.36-.214-.729-.306-1.089-.032-.107-.061-.216-.088-.323-1.342-5.282-1.495-10.773-1.495-16.232v-1.908c.039-8.831.175-17.812,1.478-26.521a1.108,1.108,0,0,1,.027-.18,82.83,82.83,0,0,1,1.777-8.707,64.232,64.232,0,0,1,2.992-8.823,81.97,81.97,0,0,1,12.195-19.409,109.413,109.413,0,0,1,19.963-19.2q1.6-1.174,3.252-2.28l.508-.333c.177-.119.355-.243.532-.348h0c.365-.243.729-.472,1.1-.7l.413-.258.788-.486.243-.139.421-.243.416-.243q.729-.43,1.475-.841,3.187-1.777,6.524-3.247.984-.435,1.981-.839a69.866,69.866,0,0,1,9.273-3.041q1.75-.442,3.522-.778,2.09-.4,4.2-.668a66.688,66.688,0,0,1,6.752-.5A69.112,69.112,0,0,1,188.06,146.8c4.959,3.947,9.414,8.622,14.983,11.648,4.861,2.635,10.552,3.726,15.758,1.653,4.3-1.714,7.1-2.564,11.935-2.3a100.035,100.035,0,0,1,29.243,6.116c.379.139.758.282,1.135.425,24.479,9.37,45.526,27.977,56.46,51.888q.433.948.843,1.91C324.939,233.367,327.292,251.22,320.094,266.066Z" transform="translate(-63.863 -114.555)"/><path class="b" d="M112.492,305.991v92.161l-.316.087a46.878,46.878,0,0,1-6.225,1.3,34.686,34.686,0,0,1-14.246-1.147l-.16-.046-.3-.087-.406-.126q-1.021-.321-2.025-.7l-.406-.156q-.972-.374-1.9-.8l-.406-.185q-.972-.452-1.9-.955c-.224-.117-.445-.243-.664-.362q-.992-.554-1.945-1.162-1.011-.644-1.979-1.344-.447-.321-.885-.659a39.221,39.221,0,0,1-4.708-4.246c-.08-.08-.156-.163-.231-.243-.386-.418-.766-.843-1.133-1.279-.136-.16-.272-.321-.406-.486q-.654-.8-1.262-1.631c-.061-.08-.119-.163-.177-.243a35.145,35.145,0,0,1-4.1-7.414c-.034-.08-.066-.163-.095-.243q-.486-1.252-.887-2.545c-.109-.36-.214-.729-.306-1.089-.032-.107-.061-.216-.087-.323-1.342-5.282-1.495-10.773-1.495-16.232v-1.908c.039-8.831.175-17.812,1.478-26.521a1.107,1.107,0,0,1,.027-.18,82.831,82.831,0,0,1,1.777-8.707H91.943V305.991h4.949V295.93h10.651v10.061Z" transform="translate(-63.84 -238.566)"/><rect class="b" width="36.458" height="4.718" transform="translate(85.91 130.376)"/><rect class="b" width="36.458" height="4.718" transform="translate(85.91 144.705)"/><rect class="b" width="6.779" height="6.779" transform="translate(35.347 69.763)"/><rect class="b" width="6.779" height="6.779" transform="translate(35.347 85.514)"/><rect class="b" width="6.779" height="6.779" transform="translate(35.347 101.262)"/><rect class="b" width="6.779" height="6.779" transform="translate(35.347 117.013)"/><rect class="b" width="6.779" height="6.779" transform="translate(35.347 132.763)"/><rect class="b" width="6.779" height="6.779" transform="translate(35.347 148.512)"/><path class="b" d="M69.93,424.68v3.889H95.858V424.68Zm2.309,3.646h-1.9v-3.4h1.9Zm2.309,0h-1.9v-3.4h1.9Zm2.309,0h-1.9v-3.4h1.9Zm2.309,0h-1.9v-3.4h1.9Zm2.309,0h-1.9v-3.4h1.9Zm2.309,0h-1.9v-3.4h1.9Zm2.309,0h-1.9v-3.4h1.9Zm2.309,0H86.5v-3.4h1.9Zm2.309,0h-1.9v-3.4h1.9Zm2.309,0h-1.9v-3.4h1.9Zm2.431,0H93.427v-3.4h2.025Z" transform="translate(-68.45 -336.021)"/><path class="b" d="M69.93,471.14v3.877H95.858V471.14Zm2.309,3.634h-1.9v-3.391h1.9Zm2.309,0h-1.9v-3.391h1.9Zm2.309,0h-1.9v-3.391h1.9Zm2.309,0h-1.9v-3.391h1.9Zm2.309,0h-1.9v-3.391h1.9Zm2.309,0h-1.9v-3.391h1.9Zm2.309,0h-1.9v-3.391h1.9Zm2.309,0H86.5v-3.391h1.9Zm2.309,0h-1.9v-3.391h1.9Zm2.309,0h-1.9v-3.391h1.9Zm2.431,0H93.427v-3.391h2.025Z" transform="translate(-68.45 -371.188)"/><path class="b" d="M69.93,517.59v3.877H95.858V517.59Zm2.309,3.634h-1.9v-3.391h1.9Zm2.309,0h-1.9v-3.391h1.9Zm2.309,0h-1.9v-3.391h1.9Zm2.309,0h-1.9v-3.391h1.9Zm2.309,0h-1.9v-3.391h1.9Zm2.309,0h-1.9v-3.391h1.9Zm2.309,0h-1.9v-3.391h1.9Zm2.309,0H86.5v-3.391h1.9Zm2.309,0h-1.9v-3.391h1.9Zm2.309,0h-1.9v-3.391h1.9Zm2.431,0H93.427v-3.391h2.025Z" transform="translate(-68.45 -406.348)"/><path class="b" d="M69.93,564v3.889H95.858V564Zm2.309,3.646h-1.9v-3.4h1.9Zm2.309,0h-1.9v-3.4h1.9Zm2.309,0h-1.9v-3.4h1.9Zm2.309,0h-1.9v-3.4h1.9Zm2.309,0h-1.9v-3.4h1.9Zm2.309,0h-1.9v-3.4h1.9Zm2.309,0h-1.9v-3.4h1.9Zm2.309,0H86.5v-3.4h1.9Zm2.309,0h-1.9v-3.4h1.9Zm2.309,0h-1.9v-3.4h1.9Zm2.431,0H93.427v-3.4h2.025Z" transform="translate(-68.45 -441.477)"/><path class="b" d="M70.34,610.49c.092.365.2.729.306,1.089v-.846h1.9v3.4H71.533c.029.08.061.163.095.243h24.55V610.49Zm4.519,3.646h-1.9v-3.4h1.9Zm2.309,0h-1.9v-3.4h1.9Zm2.309,0h-1.9v-3.4h1.9Zm2.309,0h-1.9v-3.4h1.9Zm2.309,0h-1.9v-3.4h1.9Zm2.309,0H84.5v-3.4h1.9Zm2.309,0h-1.9v-3.4h1.9Zm2.309,0h-1.9v-3.4h1.9Zm2.309,0h-1.9v-3.4h1.9Zm2.431,0H93.738v-3.4h2.025Z" transform="translate(-68.76 -476.667)"/><path class="b" d="M92.51,656.94c.058.08.117.163.177.243h1.262v1.631c.134.163.27.323.406.486v-2.115h1.9v3.4h-.771c.075.08.151.163.231.243H112.95v-3.889Zm6.057,3.646h-1.9v-3.4h1.9Zm2.309,0h-1.9v-3.4h1.9Zm2.309,0h-1.9v-3.4h1.9Zm2.309,0h-1.9v-3.4h1.9Zm2.309,0h-1.9v-3.4h1.9Zm2.309,0h-1.9v-3.4h1.9Zm2.431,0h-2.025v-3.4h2.025Z" transform="translate(-85.541 -511.826)"/><path class="b" d="M144.87,703.39c.219.124.44.243.664.362v-.119h1.9v1.074l.406.185v-1.259h1.9V705.7l.406.156v-2.219h2.025v2.917l.406.126V703.39Z" transform="translate(-125.174 -546.986)"/><path class="b" d="M457.717,286.146s-5.795-.35-5.1,3.709a.992.992,0,0,0,.515,1.045s0-.3.593-.2a2.712,2.712,0,0,0,.63.029,1.31,1.31,0,0,0,.77-.316h0s1.629-.673,2.263-3.335c0,0,.467-.581.45-.729l-.972.418a1.75,1.75,0,0,1,.073,1.291s-.032-1.264-.221-1.235c-.036,0-.508.243-.508.243a2.885,2.885,0,0,1,.141,2.122s.165-1.512-.318-2.032l-.7.406a3.03,3.03,0,0,1,.216,2.3,4.3,4.3,0,0,0-.36-2.2l-.625.486a2.954,2.954,0,0,1,.243,2.11s-.051-1.85-.382-1.991a3.75,3.75,0,0,0-.63.681s.433.907.165,1.386c0,0-.165-1.23-.3-1.237a4.1,4.1,0,0,0-.6,1.376,2.96,2.96,0,0,1,.467-1.458,1.634,1.634,0,0,0-.831.43s.085-.576.972-.627a3.794,3.794,0,0,1,.571-.656,3.582,3.582,0,0,0-1.41.163,1.583,1.583,0,0,1,1.57-.3l.615-.5a5.065,5.065,0,0,0-1.643.017,1.978,1.978,0,0,1,1.808-.131l.671-.4a6.118,6.118,0,0,0-1.57-.136,2.408,2.408,0,0,1,1.767.029l.486-.216s-.729-.141-.931-.163-.224-.08-.224-.08a2.5,2.5,0,0,1,1.354.151A6.121,6.121,0,0,0,457.717,286.146Z" transform="translate(-358.071 -231.155)"/><path class="b" d="M409.716,367.289s-1.981,5.454,2.107,5.953a.989.989,0,0,0,1.145-.2s-.284-.095-.022-.627a2.769,2.769,0,0,0,.209-.593,1.315,1.315,0,0,0-.088-.829h0s-.182-1.753-2.555-3.116c0,0-.423-.615-.571-.639l.121,1.057a1.752,1.752,0,0,1,1.259.3s-1.215-.328-1.247-.139c0,.036.09.557.09.557a2.878,2.878,0,0,1,2.073.467s-1.4-.588-2.039-.27l.19.773a3.045,3.045,0,0,1,2.27.447,4.323,4.323,0,0,0-2.217-.28l.289.729a3.015,3.015,0,0,1,2.093.362s-1.789-.486-2.015-.2a3.824,3.824,0,0,0,.472.795s.994-.156,1.376.243c0,0-1.228-.192-1.271-.066a4.19,4.19,0,0,0,1.15.972,2.975,2.975,0,0,1-1.262-.863,1.634,1.634,0,0,0,.177.921s-.53-.243-.328-1.106a3.72,3.72,0,0,1-.467-.729,3.526,3.526,0,0,0-.243,1.4,1.585,1.585,0,0,1,.16-1.59l-.306-.729a4.92,4.92,0,0,0-.452,1.582,2,2,0,0,1,.389-1.774l-.192-.756a6.06,6.06,0,0,0-.576,1.458,2.4,2.4,0,0,1,.527-1.687l-.07-.52s-.34.651-.421.848-.141.19-.141.19a2.5,2.5,0,0,1,.527-1.257A6.137,6.137,0,0,0,409.716,367.289Z" transform="translate(-325.282 -292.543)"/><path class="b" d="M567.749,348.361s-1.978,5.464,2.107,5.95a.992.992,0,0,0,1.147-.2s-.287-.095-.022-.625a2.6,2.6,0,0,0,.207-.6,1.315,1.315,0,0,0-.085-.829h0s-.182-1.753-2.555-3.116c0,0-.425-.613-.574-.637l.124,1.055a1.759,1.759,0,0,1,1.259.3s-1.215-.328-1.249-.141c0,.039.09.557.09.557a2.9,2.9,0,0,1,2.076.467s-1.4-.586-2.042-.27l.192.775a3.033,3.033,0,0,1,2.27.447,4.327,4.327,0,0,0-2.219-.282l.289.729a3.016,3.016,0,0,1,2.093.362s-1.787-.486-2.015-.2a3.755,3.755,0,0,0,.486.795s.992-.158,1.376.243c0,0-1.227-.192-1.271-.063a4.208,4.208,0,0,0,1.147.972,2.948,2.948,0,0,1-1.259-.863,1.645,1.645,0,0,0,.175.921s-.527-.243-.326-1.1a3.911,3.911,0,0,1-.469-.729,3.585,3.585,0,0,0-.243,1.4,1.584,1.584,0,0,1,.16-1.59l-.306-.729a4.92,4.92,0,0,0-.452,1.58,2,2,0,0,1,.389-1.772l-.194-.758a6.062,6.062,0,0,0-.576,1.458,2.413,2.413,0,0,1,.53-1.687l-.07-.52s-.34.651-.423.848-.141.19-.141.19a2.516,2.516,0,0,1,.53-1.257A5.968,5.968,0,0,0,567.749,348.361Z" transform="translate(-444.902 -278.214)"/><path class="b" d="M341.846,531.856s-1.981,5.457,2.107,5.955a.987.987,0,0,0,1.145-.2s-.284-.095-.022-.625a2.62,2.62,0,0,0,.209-.6,1.3,1.3,0,0,0-.087-.829h0s-.182-1.753-2.555-3.114c0,0-.423-.615-.571-.639l.121,1.055a1.758,1.758,0,0,1,1.259.3s-1.215-.328-1.247-.141c0,.039.09.557.09.557a2.891,2.891,0,0,1,2.073.467s-1.4-.586-2.039-.27l.19.775a3.033,3.033,0,0,1,2.27.447,4.317,4.317,0,0,0-2.217-.282l.289.729a3.016,3.016,0,0,1,2.093.362s-1.787-.486-2.015-.2a3.827,3.827,0,0,0,.472.795s.994-.158,1.378.243c0,0-1.23-.192-1.274-.063a4.235,4.235,0,0,0,1.15.972,2.96,2.96,0,0,1-1.262-.86,1.626,1.626,0,0,0,.177.919s-.53-.243-.328-1.1a3.918,3.918,0,0,1-.467-.729,3.536,3.536,0,0,0-.243,1.4,1.584,1.584,0,0,1,.16-1.59l-.306-.729a4.871,4.871,0,0,0-.45,1.58,2,2,0,0,1,.389-1.772l-.194-.756a6.011,6.011,0,0,0-.576,1.458,2.4,2.4,0,0,1,.527-1.687l-.071-.523s-.34.651-.42.848-.141.19-.141.19a2.489,2.489,0,0,1,.53-1.257A6.191,6.191,0,0,0,341.846,531.856Z" transform="translate(-273.909 -417.111)"/><path class="b" d="M309.509,320.259s-1.979,5.454,2.107,5.953a.994.994,0,0,0,1.147-.2s-.287-.095-.022-.627a2.725,2.725,0,0,0,.207-.6,1.308,1.308,0,0,0-.085-.826h0s-.182-1.753-2.557-3.116c0,0-.423-.615-.571-.639l.124,1.057a1.745,1.745,0,0,1,1.257.3s-1.215-.328-1.247-.139c0,.036.09.557.09.557a2.885,2.885,0,0,1,2.076.467s-1.4-.588-2.042-.27l.19.773a3.039,3.039,0,0,1,2.273.447,4.307,4.307,0,0,0-2.219-.28l.289.729a3.007,3.007,0,0,1,2.093.365s-1.787-.486-2.015-.2a3.824,3.824,0,0,0,.472.795s.994-.156,1.378.243c0,0-1.228-.192-1.271-.066a4.166,4.166,0,0,0,1.147.972,2.989,2.989,0,0,1-1.262-.863,1.632,1.632,0,0,0,.177.921s-.53-.243-.326-1.106a3.831,3.831,0,0,1-.469-.729,3.573,3.573,0,0,0-.243,1.4,1.577,1.577,0,0,1,.16-1.59l-.309-.729a4.87,4.87,0,0,0-.45,1.582,2,2,0,0,1,.389-1.774l-.194-.756a6.058,6.058,0,0,0-.576,1.458,2.417,2.417,0,0,1,.527-1.687l-.068-.52s-.343.651-.423.846-.141.192-.141.192a2.49,2.49,0,0,1,.53-1.257A5.949,5.949,0,0,0,309.509,320.259Z" transform="translate(-249.432 -256.944)"/><path class="b" d="M371.44,442.047s1.529,5.591,5.155,3.646a.989.989,0,0,0,.822-.822s-.287.087-.377-.5a2.676,2.676,0,0,0-.175-.605,1.286,1.286,0,0,0-.547-.627h0s-1.159-1.327-3.889-1.074c0,0-.7-.255-.836-.19l.71.79a1.775,1.775,0,0,1,1.2-.486s-1.189.438-1.1.605c.019.034.394.4.394.4a2.871,2.871,0,0,1,1.964-.817s-1.485.331-1.821.958l.6.523a3.048,3.048,0,0,1,2.115-.946s-1.543.4-1.976,1.05l.661.435a2.94,2.94,0,0,1,1.92-.909s-1.736.639-1.762,1a3.79,3.79,0,0,0,.846.377s.729-.7,1.262-.6c0,0-1.116.552-1.077.681a4.326,4.326,0,0,0,1.495.126,2.965,2.965,0,0,1-1.526.024,1.618,1.618,0,0,0,.676.649s-.574.1-.9-.715a3.852,3.852,0,0,1-.807-.328,3.594,3.594,0,0,0,.608,1.283,1.585,1.585,0,0,1-.785-1.393l-.673-.421a5.094,5.094,0,0,0,.542,1.551,2,2,0,0,1-.7-1.672l-.593-.506a6.076,6.076,0,0,0,.374,1.531,2.437,2.437,0,0,1-.54-1.682l-.357-.386s.1.729.143.936,0,.243,0,.243a2.5,2.5,0,0,1-.292-1.332A6.075,6.075,0,0,0,371.44,442.047Z" transform="translate(-296.673 -349.03)"/><path class="b" d="M542.08,462.625s1.529,5.591,5.153,3.646a.987.987,0,0,0,.824-.822s-.289.088-.379-.486a2.55,2.55,0,0,0-.173-.605,1.3,1.3,0,0,0-.549-.627h0s-1.159-1.327-3.889-1.072c0,0-.7-.258-.834-.192l.707.79a1.775,1.775,0,0,1,1.2-.486s-1.189.438-1.1.605c.017.034.394.4.394.4a2.871,2.871,0,0,1,1.964-.817s-1.487.331-1.823.958l.6.523a3.008,3.008,0,0,1,2.112-.946s-1.541.4-1.974,1.05l.661.435a2.938,2.938,0,0,1,1.918-.909s-1.736.639-1.76,1a3.765,3.765,0,0,0,.843.377s.729-.7,1.262-.6c0,0-1.113.552-1.077.681a4.336,4.336,0,0,0,1.5.126,2.979,2.979,0,0,1-1.529.024,1.635,1.635,0,0,0,.676.649s-.574.1-.9-.715a3.786,3.786,0,0,1-.8-.328,3.571,3.571,0,0,0,.605,1.283,1.585,1.585,0,0,1-.785-1.393l-.673-.425a5.053,5.053,0,0,0,.544,1.551,2,2,0,0,1-.7-1.672l-.6-.506a6,6,0,0,0,.377,1.531,2.43,2.43,0,0,1-.542-1.682l-.357-.386s.1.729.143.936,0,.243,0,.243a2.5,2.5,0,0,1-.292-1.332A6.1,6.1,0,0,0,542.08,462.625Z" transform="translate(-425.836 -364.615)"/><path class="c" d="M447.737,621.1s12.61-4.246,10-19.292l-16.018-4.159L438,610Z" transform="translate(-347.054 -466.948)"/><path class="d" d="M438,622.946l9.735,11.106s12.61-4.246,10-19.292Z" transform="translate(-347.054 -479.899)"/><path class="e" d="M225.133,180.556c2.326-1.383.095-5.2.095-5.2S222.807,181.939,225.133,180.556Z" transform="translate(-183.148 -147.278)"/><path class="f" d="M460.679,611.85l8.75.707,16.286.134-12.832,15.8s-4.071.221-4.91.795-12.613.267-12.613.267l-1.9-8.1Z" transform="translate(-358.756 -477.696)"/><path class="g" d="M460.679,611.85l8.75.707,16.286.134-12.832,15.8s-4.071.221-4.91.795-12.613.267-12.613.267l-1.9-8.1Z" transform="translate(-365.267 -479.866)"/><path class="h" d="M419.19,436.023l2.034,3.452.442,6.018s1.417,5.131,2.479,6.636,1.5,5.488,1.5,5.488.442,3.716.972,4.511,1.24,6.563,1.24,6.563,4.691,9.38,8.938,10.53c0,0-21.062,6.9-10,19.292,0,0-7.875,1.945-9.735-.265s-6.726-34.956-6.726-34.956l1.5-27.612Z" transform="translate(-326.117 -344.347)"/><path class="i" d="M419.19,436.023l2.034,3.452.442,6.018s1.417,5.131,2.479,6.636,1.5,5.488,1.5,5.488.442,3.716.972,4.511,1.24,6.563,1.24,6.563,4.691,9.38,8.938,10.53c0,0-21.062,6.9-10,19.292,0,0-7.875,1.945-9.735-.265s-6.726-34.956-6.726-34.956l1.5-27.612Z" transform="translate(-327.564 -340.007)"/><path class="f" d="M261.508,251.6a18.959,18.959,0,0,0,.51,9.212l-3.277,9.38s-24.956-13.894-22.831-17.258c1.2-1.908,1.356-6.957,1.259-10.967-.07-3.048-.287-5.493-.287-5.493s30.626,3.012,26.55,10A16.5,16.5,0,0,0,261.508,251.6Z" transform="translate(-193.989 -193.559)"/><path class="d" d="M266.86,246.472a16.5,16.5,0,0,0-1.925,5.124,20.649,20.649,0,0,1-24.338-9.633c-.07-3.048-.287-5.493-.287-5.493S270.929,239.482,266.86,246.472Z" transform="translate(-197.416 -193.559)"/><path class="f" d="M272.074,151.525a20.622,20.622,0,1,1-37.447-11.91q.438-.615.921-1.2a20.627,20.627,0,0,1,6.711-5.347h0a20.256,20.256,0,0,1,4.412-1.6,20.661,20.661,0,0,1,25.15,16.755,20.868,20.868,0,0,1,.253,3.3Z" transform="translate(-190.24 -113.657)"/><path class="h" d="M159.74,349.546c-.309,1.648.078,4.66.664,7.725.024.134.051.267.078.4s.066.34.1.508c.27,1.317.564,2.623.851,3.809s.544,2.2.763,3.038c.331,1.252.557,2.039.557,2.039s.029.773.068,2c.022.71.046,1.575.07,2.53,0,.277.017.559.024.851.012.508.024,1.035.036,1.575,0,.175,0,.35.012.527,0,.581.022,1.174.032,1.765.012.812.022,1.624.027,2.411v3.029a17.88,17.88,0,0,1-.262,3.716c-.056.141-.107.294-.156.455a15.37,15.37,0,0,0-.457,2.3l-.413-.338c-.79-.651-1.573-1.317-2.367-1.964a34.42,34.42,0,0,0-4.2-3.009c-.1-.058-.2-.117-.3-.173-.272-.158-.549-.306-.831-.447a19.051,19.051,0,0,0-1.784-.788,23.368,23.368,0,0,0-8.862-1.393c-1.215.464-2.005.8-2.005.8l-1.546.467-.258.078c-1.675.51-4.03,1.235-4.878,1.536-1.371.486-13.274,2.963-13.274,2.963a19.771,19.771,0,0,1-3.32.608,46.883,46.883,0,0,1-6.225,1.3,34.686,34.686,0,0,1-14.246-1.147,2.331,2.331,0,0,1-.413-.012,1.274,1.274,0,0,0,.243-.034l-.3-.087-.406-.126q-1.021-.321-2.025-.7l-.406-.156q-.972-.374-1.9-.8l-.406-.185q-.972-.452-1.9-.955c-.224-.117-.445-.243-.664-.362q-.992-.554-1.945-1.162c-.107-.916-.163-1.529-.163-1.529l-.948-4.72-.049-.243-.681-3.4L85.626,372l-1.48-7.4-.049-.243-.681-3.4-.049-.243-1.5-7.4-.049-.243-.681-3.4-.049-.243L79.6,342l-.049-.243-.681-3.391-.049-.243-.27-1.337-.406-2.025s-1.3-1.852-2.754-4.042l-.163-.243c-.416-.615-.843-1.254-1.259-1.881-.139-.207-.272-.411-.406-.613q-.3-.459-.588-.9l-.131-.2-.027-.041c-2.1-3.243-.693-4.652-.693-4.652s.88-1.191,2.015-2.766c.056-.08.114-.16.175-.243.486-.681,1.021-1.424,1.546-2.168l.406-.579c.153-.216.3-.433.45-.647.058-.08.114-.163.168-.243a28.758,28.758,0,0,0,2.234-3.532,29.364,29.364,0,0,1,4.071-5.175,21.455,21.455,0,0,1,3.627-3.4c1.5-.795,2.124-3.364,2.124-3.364s3.274-1.147,3.716-2.032,6.638-4.861,6.638-4.861a32.747,32.747,0,0,0,3.52-2.586,2.073,2.073,0,0,0,.372-.435c.352-.632,2.654-1.152,3.59-1.339.243-.049.394-.075.394-.075a7.921,7.921,0,0,1,1.417-1.859,8.523,8.523,0,0,0,1.259-2.63c.435-1.23,2.034,0,2.034,0,.591,2.917,4.54,7.2,6.225,8.566,1.859,1.5,14.372,8.234,15.072,9.063L134.7,299c.117.136,2.295-7.243,2.295-7.243,4.788,2.841,4.6,4.256,4.6,4.256s4.159,1.24,4.514,2.124a3.178,3.178,0,0,0,.853.863,46.765,46.765,0,0,0,6.83,4.339c.053.027.1.053.158.075a1.624,1.624,0,0,0,.148.07c.09.044.177.083.26.119q.2.088.365.146l.146.051a3.516,3.516,0,0,1,.972.5c.087.063.175.129.26.2a6.866,6.866,0,0,1,.909.914c.041.049.08.1.119.148h0a8.175,8.175,0,0,1,.486.671,9.949,9.949,0,0,1,.61,1.016s3.627,6.2,4.779,6.9,1.859,7.878,1.859,7.878h0l-3.889,14.416s-.182,3.646-.523,7.365C160.268,345.9,160.027,348.02,159.74,349.546Z" transform="translate(-69.766 -226.894)"/><path class="d" d="M271.819,148.237a2.445,2.445,0,0,1-.314.362c-1.279,1.215-3.549.712-5.292.43a19.272,19.272,0,0,1-4.407-1.274c-1.23-.525-2.705-1.167-3.811-.413-.425.287-.717.746-1.159,1a3.192,3.192,0,0,1-1.529.277,22.323,22.323,0,0,1-5.063-.365c-2.477-.579-5.039-2.034-7.394-1.074-1.842.749-2.841,2.754-3.34,4.681a8.47,8.47,0,0,1-.972,2.747,2.217,2.217,0,0,1-2.516.994c-1.334-.557-1.531-2.822-3.14-2.936-1.767-.124-1.745,1.7-1.23,3.021.763,1.945,1.762,3.889,1.806,5.916a20.634,20.634,0,0,1,1.176-21.983,2.222,2.222,0,0,0,.877-1.026,1.534,1.534,0,0,0,.044-.175c.134-.678-.243-1.39-.265-2.1-.085-1.733,1.791-2.941,3.512-3.16,1.145-.146,2.316-.034,3.464-.07h0a7.836,7.836,0,0,0,1.714-.228,8.244,8.244,0,0,0,2.674-1.373,20.661,20.661,0,0,1,25.15,16.755Z" transform="translate(-190.248 -113.672)"/><path class="j" d="M266.338,135.779a2.674,2.674,0,0,1-.729,1.264c-1.279,1.215-3.549.71-5.292.428a19.03,19.03,0,0,1-4.407-1.264c-1.23-.523-2.705-1.164-3.811-.411-.425.287-.717.746-1.159,1a3.163,3.163,0,0,1-1.529.275,21.645,21.645,0,0,1-5.063-.362c-2.477-.581-5.039-2.034-7.394-1.077-1.842.749-2.841,2.756-3.34,4.684a8.437,8.437,0,0,1-.972,2.744,2.222,2.222,0,0,1-2.516,1c-1.334-.557-1.531-2.822-3.14-2.936-1.767-.124-1.745,1.7-1.23,3.021.9,2.3,2.134,4.592,1.731,7.032-.4,0-1.065-.015-1.458-.024.306-.523-.277-1.145-.858-1.322s-1.259-.175-1.7-.6a2,2,0,0,1-.4-1.663,11.441,11.441,0,0,1,.907-3.631,3.365,3.365,0,0,0,.486-2.282,6.485,6.485,0,0,0-.525-.994,3.8,3.8,0,0,1,.046-3.191c.185-.428.318-.831.472-1.215a5.406,5.406,0,0,1,.829-1.514c.557-.693,1.1-1.736.486-2.38-.156-.163.156-.275.056-.486a.416.416,0,0,1-.036-.114,1.1,1.1,0,0,1,.175-.729,1.776,1.776,0,0,1,.095-.163,1.385,1.385,0,0,1,.095-.16,7.727,7.727,0,0,1,2.1-2.292c.527-.382,1.145-.749,1.354-1.366.243-.729-.185-1.5-.221-2.275-.085-1.733,1.791-2.941,3.512-3.16s3.505.143,5.182-.3c2.38-.627,4.052-2.727,6.213-3.906a8.8,8.8,0,0,1,7.73-.277c2.523,1.152,4.426,3.481,7.061,4.356a12.988,12.988,0,0,1,2.786.95,6.128,6.128,0,0,1,2.068,2.674,32.829,32.829,0,0,1,1.458,4.788,17.751,17.751,0,0,1,1.057,4.54,4.549,4.549,0,0,1-.119,1.344Z" transform="translate(-184.351 -102.647)"/><g class="k" transform="translate(109.534 79.109)"><g transform="translate(20.913 0)"><path class="l" d="M.628,94.65,12.6,82.156,7.392,78.831l-.3-2.591L9.506,76.1l6.27,4.51,7.825.007,4.79-2.925,1.716.35-.025,1.9-3.088,3.42.407,1.8,36.336,3.908,37.638-1.051,4.056,1.7,2.988,3.8,1.537,8.88.272,6.383.932,5.96-.256,5.937-1.048.214-1.523-1.677-1.238-5.57,1-7.727-.349-.053-2.359,11.764,1.607,10.209L105.528,148.2l-.14,2.256-1.43,1.22-6.322.01-2.037-.616,5.656-9.211-2.806-11.7-1.47,0-5.128,15.552-2.643,3.993-1.3.8-6.979.005-.9-1.12,6.041-3.711,4.1-12.615-1.027-2.048-2.406.223-1.511,3.7-2.188-3.606-2.12,3.621-1.8-3.932-5.286-4.064-18.759-1.8-3.149,3.849L49.272,147.84l-1.4,2.7-6.392,0-.689-1.013,3.885-5.407.467-10.3-2.1,1.164-2.21,6.84-2.81,8.881-1.26.977-5.719,0-.475-1.292,1.672-1.547,5.393-10.539L36.4,127.268l-6.043-4.47-8.8-16.35L11.419,101.77,2.1,100.71l-.8-.866L0,96.169Z" transform="translate(0 -76.096)"/></g><g transform="translate(0 30.602)"><path class="l" d="M.35,86.429l6.67-6.958-2.9-1.851-.169-1.443,1.347-.08,3.492,2.512,4.358,0,2.667-1.629.955.2-.014,1.059-1.719,1.9.227,1L35.5,83.318l20.961-.585,2.259.947,1.664,2.114.856,4.945.151,3.555.519,3.319-.143,3.306-.584.119-.848-.934L59.64,97l.559-4.3L60,92.669l-1.314,6.551.895,5.686-.817,11.347-.078,1.257-.8.679-3.521.005-1.135-.343,3.15-5.13-1.563-6.514h-.818l-2.856,8.661-1.472,2.223-.726.447-3.886,0-.5-.624,3.364-2.067,2.281-7.025-.572-1.141-1.34.124-.841,2.06-1.219-2.008-1.181,2.017-1-2.19-2.944-2.263-10.447-1-1.753,2.144-1.478,10.48-.777,1.506H23.1l-.384-.564,2.164-3.011.26-5.734-1.168.648L22.743,112.7l-1.565,4.946-.7.544-3.185,0-.264-.719.931-.862,3-5.869-.692-6.151L16.9,102.1,12,93l-5.642-2.6L1.171,89.8l-.445-.482L0,87.275Z" transform="translate(0 -76.096)"/></g></g><g class="m" transform="translate(38.77 21.684)"><path d="M234.64,180.879a1.082,1.082,0,0,0-.182-.909c.063.19-.211.3-.061.457A.972.972,0,0,1,234.64,180.879Z" transform="translate(-231.676 -172.476)"/><path d="M234.6,177.68h0a1,1,0,0,0-.051.263C234.6,177.865,234.659,177.785,234.6,177.68Z" transform="translate(-231.826 -170.743)"/><path d="M273.36,192.324c-1.281,1.215-3.549.712-5.3.428a18.9,18.9,0,0,1-4.4-1.271c-1.232-.525-2.705-1.167-3.814-.413-.423.287-.715.746-1.159,1a3.168,3.168,0,0,1-1.529.275,22.215,22.215,0,0,1-5.066-.365c-2.474-.578-5.036-2.03-7.392-1.074-1.842.751-2.841,2.756-3.34,4.684a8.414,8.414,0,0,1-.972,2.747,2.224,2.224,0,0,1-2.516,1c-1.334-.559-1.531-2.822-3.14-2.936-1.257-.09-1.607.809-1.522,1.808a1.278,1.278,0,0,1,1.522-1.279c1.609.114,1.806,2.38,3.14,2.936a2.213,2.213,0,0,0,2.516-1,8.518,8.518,0,0,0,.972-2.744c.5-1.928,1.5-3.935,3.34-4.684,2.355-.958,4.917.486,7.392,1.074a21.529,21.529,0,0,0,5.066.362,3.076,3.076,0,0,0,1.529-.272c.455-.258.729-.712,1.159-1,1.108-.751,2.581-.109,3.814.413a19.027,19.027,0,0,0,4.4,1.274c1.748.282,4.016.79,5.3-.43a3.34,3.34,0,0,0,.858-2.674A3.062,3.062,0,0,1,273.36,192.324Z" transform="translate(-230.805 -180.205)"/><path d="M249.431,149.14a2.578,2.578,0,0,0-.015.365c.024.506.216,1.011.277,1.5A7.563,7.563,0,0,0,249.431,149.14Z" transform="translate(-243.078 -149.14)"/><path d="M226.5,211.741a1.789,1.789,0,0,1,.046.221,1.745,1.745,0,0,0-.046-.751,6.3,6.3,0,0,0-.525-1,3,3,0,0,1-.318-1.155,3.2,3.2,0,0,0,.318,1.687A6.175,6.175,0,0,1,226.5,211.741Z" transform="translate(-225.084 -194.495)"/><path d="M237.006,254.807l-1.422-.022a.61.61,0,0,1-.044.53c.4,0,1.067.015,1.458.024a5.953,5.953,0,0,0,.071-1.259A5.7,5.7,0,0,1,237.006,254.807Z" transform="translate(-232.576 -228.572)"/><path d="M225.449,246.491c-.581-.175-1.257-.177-1.689-.6a1.541,1.541,0,0,1-.4-1.018,1.913,1.913,0,0,0,.4,1.551c.433.425,1.108.428,1.689.6a1.444,1.444,0,0,1,.882.729C226.577,247.25,226.013,246.659,225.449,246.491Z" transform="translate(-223.345 -221.601)"/></g><path class="n" d="M284.6,170.348s-.929,1.2-1.767,1.2a26.268,26.268,0,0,1-5.8-.664c-1.7-.53-10.044-.931-10.044-.931s-11.813.044-12.212-.355-7.346-2.523-8.053-2.389c-.148.029-.51.092-.994.173l-.126-.778-.032-.192s13.408-2.875,22.345-1.368,15.532,3.184,15.532,3.184-.177.8.177,1.106a4.967,4.967,0,0,1,.367.36c.032.032.063.063.092.1.1.1.2.209.275.3a.114.114,0,0,1,.024.024.807.807,0,0,0,.061.066Z" transform="translate(-201.397 -139.16)"/><path class="d" d="M264,180.136a35.006,35.006,0,0,1-6.04-.472c-.379-.056-.751-.124-1.125-.207-1.432-.311-5.834-1.184-8.507-.78-3.23.486-12.345-.4-12.345-.4a65.411,65.411,0,0,1-7.878-2.078,7.832,7.832,0,0,0-3.593-.28,10,10,0,0,0-1.045.187c-1.881.445-3.469,1.458-3.194,3.187a4.057,4.057,0,0,1-.292-.4,3.361,3.361,0,0,1,1.052-3.075h0l.16-.066a19.635,19.635,0,0,1,2.533-.542c.134-.022.272-.041.413-.058a15.62,15.62,0,0,1,8.867,1.087,14.111,14.111,0,0,0,4.6,1.286c1.859,0,16.99.134,20.532,1.15a15.069,15.069,0,0,0,2.151.455,8.751,8.751,0,0,0,3.84-.362A4.551,4.551,0,0,1,264,180.136Z" transform="translate(-180.571 -146.28)"/><path class="d" d="M266.556,176.5s-.929,1.2-1.767,1.2a26.27,26.27,0,0,1-5.8-.664c-1.7-.53-10.044-.931-10.044-.931s-11.813.044-12.212-.355-7.345-2.523-8.053-2.389c-.148.029-.51.092-.994.173l-.554.09a9.869,9.869,0,0,0-2.844.4,8.887,8.887,0,0,1-2.555.088v-.2a5.834,5.834,0,0,1,.795-.384,21.5,21.5,0,0,1,5.032-.783,14.062,14.062,0,0,1,6.784,1.269,14.111,14.111,0,0,0,4.6,1.286c1.859,0,16.99.131,20.532,1.15a15.394,15.394,0,0,0,2.151.452,8.945,8.945,0,0,0,4.689-.673.114.114,0,0,1,.024.024.814.814,0,0,0,.061.066Z" transform="translate(-183.352 -145.309)"/><path class="d" d="M309.78,81.322c-.243-.35-3.366-2.851-4.64-3.862l2.3-.34a1.736,1.736,0,0,1,.226-.19A9.5,9.5,0,0,1,309.78,81.322Z" transform="translate(-246.488 -72.798)"/><path class="d" d="M215.548,89.3l-1.018,1.5,3.894-.131.088-1.682Z" transform="translate(-162.387 -67.359)"/><path class="d" d="M316.47,97.73l.442,1.371,2.479.4-1.062-1.638Z" transform="translate(-239.549 -73.975)"/><path class="d" d="M205.18,347c.265.442,8.981,11.91,11.283,11.592S205.18,347,205.18,347Z" transform="translate(-170.825 -277.223)"/><path class="d" d="M325.33,390.12s2.124,2.037,1.813,2.832S325.33,390.12,325.33,390.12Z" transform="translate(-261.77 -309.862)"/><path class="d" d="M226.3,447.65s-1.859,8.716-.885,8.993S226.3,447.65,226.3,447.65Z" transform="translate(-185.931 -353.408)"/><path class="d" d="M328.24,586.91c.309.885,2.875,6.638,3.452,6.947S328.24,586.91,328.24,586.91Z" transform="translate(-263.973 -458.818)"/><path class="d" d="M445.069,489.7c-.09.309-2.3,2.124-1.816,2.788S445.069,489.7,445.069,489.7Z" transform="translate(-350.977 -385.237)"/><path class="d" d="M379.817,556.14c-.044.224-.486,4.861.355,5.753S379.817,556.14,379.817,556.14Z" transform="translate(-302.896 -435.528)"/><path class="d" d="M250.716,611.722c-.642.357-1.305.7-1.981,1.033-.729.355-1.458.693-2.2,1.011-.3.129-.593.255-.887.377q-.671.277-1.327.532c-1.33.52-2.611.972-3.751,1.354-.442.148-.865.284-1.259.411-1.983.63-3.3.972-3.3.972a3.582,3.582,0,0,0-.916-.075h-.263a11.544,11.544,0,0,0-1.227.156,56.653,56.653,0,0,0-8.862,2.742c-1.215.464-2.005.8-2.005.8l-1.546.467-.258.078c-1.675.51-4.03,1.235-4.878,1.536-1.371.486-13.274,2.963-13.274,2.963a19.756,19.756,0,0,1-3.32.608,60.58,60.58,0,0,1-8.318.19,54.674,54.674,0,0,1-9.915-.846l-.418-.066c-1.014-.165-1.658-.284-1.658-.284l.34-.469,6.978-9.628.041-.058,6.5-8.967.243-.326.591-.814s.355-.486,1.721-.518h.527a14.259,14.259,0,0,1,3.371.688l.316.095c4.708,1.349,11.986,1.011,11.986,1.011s4.528-.729,8.087-1.167l.265-.034a32.635,32.635,0,0,1,3.507-.3,39.316,39.316,0,0,0,6.859-1.106,4.57,4.57,0,0,0,2-.8l.243-.175c.243-.182.523-.406.882-.683.656-.5,1.578-1.186,3.026-2.144.126-.083.26-.165.4-.243s.326-.182.5-.27a18.982,18.982,0,0,1,4.4-1.458,25.8,25.8,0,0,1,3.833-.527h.192c3.646-.194,7.37.43,9.548,2.479a5.977,5.977,0,0,1,.987,1.215,5.527,5.527,0,0,1,.355.661,6.2,6.2,0,0,1,.44,1.361q.027.131.044.262v.078c0,.07.015.141.019.211C257.561,606.953,254.542,609.583,250.716,611.722Z" transform="translate(-151.122 -467.017)"/><path class="f" d="M179.15,623.467s7.875,1.458,11.99,1.194c0,0,7.567.4,11.638-.795,0,0,11.91-2.479,13.274-2.965s6.682-2.081,6.682-2.081,10.355-4.336,13.274-3.629c0,0,22.921-5.928,21.283-13.937s-16.106-6.193-20.661-3.187-3.889,3.32-6.15,3.806a39.313,39.313,0,0,1-6.859,1.106c-2.168-.044-11.859,1.5-11.859,1.5s-7.61.355-12.3-1.106-5.62-.177-5.62-.177Z" transform="translate(-151.122 -465.33)"/><path class="d" d="M129.694,455.629a.119.119,0,0,1,0,.029,1.641,1.641,0,0,1-.139.523c-.933,2.29-6.232,8.466-6.232,8.466a16.922,16.922,0,0,1-.873,2.144,32.875,32.875,0,0,1-2.516,4.266,57.761,57.761,0,0,1-4.577,5.8h-.012a6.948,6.948,0,0,1-.654.43,5.41,5.41,0,0,1-2.239.812,2.328,2.328,0,0,1-.413-.012,1.274,1.274,0,0,0,.243-.034l-.3-.088-.406-.126q-1.021-.321-2.025-.7l-.406-.156q-.972-.374-1.9-.8l-.406-.185q-.972-.452-1.9-.955c-.224-.117-.445-.243-.664-.362q-.992-.554-1.945-1.162-1.011-.644-1.979-1.344c-.486-.9-.887-1.7-1.106-2.132a5.929,5.929,0,0,1-.384-2.773,1.321,1.321,0,0,1,.015-.243c.041-.52.1-.877.1-.877a12.479,12.479,0,0,1-.972-1.517,1.784,1.784,0,0,1-.272-.873,1.035,1.035,0,0,0-.034-.369,8.622,8.622,0,0,0-1.736-2.917c-.554-.61-.588-2.89-.535-4.507.032-.972.092-1.687.092-1.687a.566.566,0,0,1-.231-.3,7.224,7.224,0,0,1-.394-1.648,1.719,1.719,0,0,0-.034-.243c-.156-1.116-.226-2.236-.226-2.236a8.478,8.478,0,0,1-3.053-5.177l-.051-.243a15.313,15.313,0,0,1-.277-3.4v-.3a42.4,42.4,0,0,1,.9-7.324c.027-.088.056-.168.085-.243a1.824,1.824,0,0,1,.19-.367A4.526,4.526,0,0,0,93,431.133c.1-.5.182-1.057.243-1.612.056-.462.1-.921.134-1.347.095-1.138.124-2.025.124-2.025l-.45-2.217c-.124-.605-.219-1.215-.284-1.825a2.134,2.134,0,0,0-.029-.243,20.542,20.542,0,0,1-.061-3.391,1.349,1.349,0,0,1,.015-.243,20.551,20.551,0,0,1,1.983-7.414l.122-.243q.243-.486.51-.955c.129-.231.265-.459.406-.685a20.055,20.055,0,0,1,1.215-1.753c.063-.083.129-.163.194-.243a19.8,19.8,0,0,1,2.518-2.6c2.455-2.11,4.708-3.026,6.755-3.1,8.95-.316,13.969,15.513,14.781,18.286.078.267.117.413.117.413s3.627,3.629,2.564,5.221a2.739,2.739,0,0,0-.367,1.147,20.264,20.264,0,0,0,.544,5.668s.3.972,1.162,3.3l.255.681a13.978,13.978,0,0,1,.357,6.1c-.3,2.1-1,3.957-2.127,4.434-2.3.972-1.682,1.945-1.152,2.744a10.926,10.926,0,0,1,.785,1.794c.333.9.642,1.84.758,2.207.034.1.051.158.051.158a4.8,4.8,0,0,1,1-.267c.435-.061.865-.017.948.355.044.2.294.435.647.671A18.669,18.669,0,0,0,129.694,455.629Z" transform="translate(-84.588 -318.279)"/><path class="h" d="M127.522,455.628h0a1.6,1.6,0,0,1-.139.535c-.929,2.292-6.232,8.483-6.232,8.483a17.284,17.284,0,0,1-.873,2.144,30.961,30.961,0,0,1-1.986,3.469,57.158,57.158,0,0,1-5.051,6.539l-.056.061s-.214.163-.554.372a6.32,6.32,0,0,1-1.981.831l-.3-.088-.406-.126q-1.021-.321-2.025-.7l-.406-.156q-.972-.374-1.9-.8l-.406-.185q-.972-.452-1.9-.955c-.224-.117-.445-.243-.664-.362q-.992-.554-1.945-1.162-1.011-.644-1.979-1.344-.447-.321-.885-.659c-.328-.622-.591-1.147-.754-1.473a5.929,5.929,0,0,1-.384-2.773,1.321,1.321,0,0,1,.015-.243c.041-.52.1-.878.1-.878s-.2-.265-.435-.625c-.134-.2-.277-.43-.406-.659a2.255,2.255,0,0,1-.4-1.106.544.544,0,0,0,0-.126,1.178,1.178,0,0,0-.036-.243,8.633,8.633,0,0,0-1.738-2.917c-.554-.61-.588-2.89-.537-4.507v-.243c.034-.839.085-1.444.085-1.444-.275-.119-.486-1-.622-1.945l-.036-.243c-.156-1.116-.226-2.236-.226-2.236a8.462,8.462,0,0,1-3.05-5.177,14.842,14.842,0,0,1-.316-3.889v-.061a41.783,41.783,0,0,1,.875-7.353c.027-.087.056-.168.085-.243a1.821,1.821,0,0,1,.216-.355,8.191,8.191,0,0,0,.775-3.024l.029-.243c.2-1.7.258-3.371.258-3.371l-.452-2.217q-.185-.911-.284-1.825c-.012-.08-.019-.163-.029-.243a20.548,20.548,0,0,1-.061-3.391,1.157,1.157,0,0,1,.017-.243,20.5,20.5,0,0,1,1.983-7.414c.039-.083.078-.163.122-.243a19.044,19.044,0,0,1,1.04-1.838c.131-.207.265-.411.406-.612.221-.321.452-.637.693-.943l.194-.243a19.83,19.83,0,0,1,2.5-2.589c2.674-2.292,5.1-3.177,7.292-3.1,8.617.309,13.454,15.568,14.249,18.286.078.267.117.413.117.413s3.629,3.629,2.567,5.221a2.74,2.74,0,0,0-.367,1.147,20.167,20.167,0,0,0,.544,5.668s.3.972,1.162,3.3c.078.216.163.442.243.681a13.977,13.977,0,0,1,.357,6.1c-.3,2.1-1,3.957-2.127,4.434-2.3.972-1.682,1.945-1.15,2.744a10.923,10.923,0,0,1,.785,1.794c.421,1.145.807,2.365.807,2.365a4.746,4.746,0,0,1,.486-.158,2.487,2.487,0,0,1,1.05-.109.464.464,0,0,1,.416.355c.066.292.569.654,1.179,1a22.508,22.508,0,0,0,2.448,1.147Z" transform="translate(-82.946 -318.278)"/><path class="d" d="M115.61,511.827c.841-.044,9.869-3.539,11.728-2.346s13.369,8.938,13.369,8.938-7.212-9.424-13.5-11.636S115.61,511.827,115.61,511.827Z" transform="translate(-103.026 -397.851)"/><path class="d" d="M169,587.46s9.028,1.813,10.4,3.053Z" transform="translate(-143.439 -459.235)"/><path class="d" d="M152.024,643c-.131.134-3.4,7.477-3.14,7.477a44.091,44.091,0,0,0,3.053-4.375Z" transform="translate(-128.201 -501.275)"/><path class="d" d="M179.778,606.75s-2.654.931-2.346,1.018S179.688,607.149,179.778,606.75Z" transform="translate(-149.803 -473.836)"/><path class="d" d="M176.24,652.45c.442.929,1.857,3.716,2.168,3.274S176.24,652.45,176.24,652.45Z" transform="translate(-148.919 -508.428)"/><path class="o" d="M446.754,583.269l38.48-32.085a2.061,2.061,0,0,1,1.376-.486l14.355.377s.994.729-.464,2.324l-36.3,29.788a2.309,2.309,0,0,1-1.385.52l-15.7.52a.542.542,0,0,1-.365-.958Z" transform="translate(-353.533 -431.408)"/><path class="f" d="M523.94,616.91s8.405,12.037,17.744.841,6.638-17.078,3.806-17.389S526.726,612.309,523.94,616.91Z" transform="translate(-412.105 -468.996)"/><path class="b" d="M757.17,73.218S768,52.193,780.808,63.036a4.037,4.037,0,0,1,2.584,3.974s-1.077-.591-1.932,1.667a10.91,10.91,0,0,1-1.215,2.268,5.348,5.348,0,0,1-2.7,2.037h0s-5.746,4.3-16.39.984c0,0-3.009.433-3.5.058l3.5-2.557s1.777,2.637,4.375,2.939c0,0-4.375-2.747-3.875-3.342.1-.122,1.916-1.271,1.916-1.271s3.109,4.572,7.139,4.91c0,0-5.646-2.574-6.456-5.347l2.837-1.582s3.048,5,7.625,5.554c0,0-5.809-2.895-6.981-5.858l3-1.172s3.07,4.813,6.879,5.253c0,0-6.373-4.023-6.174-5.476a15.555,15.555,0,0,1,3.687-.79s2.282,3.4,4.519,3.464c0,0-3.974-3.14-3.712-3.624,0,0,3.991-.207,6.077.758A12.1,12.1,0,0,0,775.94,64.5a6.648,6.648,0,0,1,3.243-2.02s-2.2-.9-4.21,2.081c0,0-3.1.284-3.488.63,0,0,1.57-3.228,3.5-4.6,0,0-2.88.508-4.307,4.883l-3.043,1.111s1.85-4.375,3.481-5.727c0,0-2.859.972-4.224,6.077l-2.8,1.522a24.775,24.775,0,0,1,2.8-5.787s-2.457,1.473-3.583,6.252l-1.75,1.232s1-2.824,1.366-3.61.18-.948.18-.948a10.175,10.175,0,0,0-2.292,5.049S757.372,73.413,757.17,73.218Z" transform="translate(-588.644 -59.93)"/><path class="b" d="M941.5,142.159s4.9-9.5,10.68-4.6a1.819,1.819,0,0,1,1.167,1.794s-.486-.265-.873.756a4.853,4.853,0,0,1-.544,1.023,2.43,2.43,0,0,1-1.215.921h0s-2.6,1.945-7.409.445a4.823,4.823,0,0,1-1.578.027l1.58-1.157a3.221,3.221,0,0,0,1.979,1.327s-1.974-1.24-1.75-1.509c.044-.053.863-.574.863-.574s1.4,2.066,3.228,2.219c0,0-2.552-1.164-2.917-2.431l1.283-.712s1.376,2.258,3.444,2.511c0,0-2.625-1.308-3.16-2.647l1.356-.53s1.386,2.175,3.106,2.375c0,0-2.88-1.818-2.788-2.474a7.026,7.026,0,0,1,1.665-.357s1.031,1.539,2.042,1.563c0,0-1.8-1.417-1.677-1.636a7.561,7.561,0,0,1,2.742.343,5.449,5.449,0,0,0-2.742-.625,3.012,3.012,0,0,1,1.458-.914s-.994-.408-1.9.941a6.937,6.937,0,0,0-1.575.284,6.591,6.591,0,0,1,1.582-2.078s-1.3.229-1.945,2.207l-1.361.51a9.329,9.329,0,0,1,1.573-2.589s-1.293.44-1.911,2.744l-1.264.685a11.122,11.122,0,0,1,1.261-2.615,4.429,4.429,0,0,0-1.616,2.824l-.792.557s.454-1.276.617-1.631.08-.428.08-.428A4.618,4.618,0,0,0,943.153,141,11.326,11.326,0,0,1,941.5,142.159Z" transform="translate(-728.17 -117.627)"/><path class="b" d="M723.27,187.639s4.9-9.5,10.695-4.6a1.824,1.824,0,0,1,1.167,1.8s-.486-.267-.873.754a4.957,4.957,0,0,1-.544,1.023,2.43,2.43,0,0,1-1.227.921h0s-2.6,1.945-7.406.445c0,0-1.359.2-1.578.027l1.58-1.157a3.231,3.231,0,0,0,1.976,1.33s-1.974-1.242-1.75-1.512c.046-.053.865-.574.865-.574s1.4,2.066,3.225,2.219c0,0-2.55-1.164-2.917-2.431l1.283-.71s1.378,2.256,3.447,2.508c0,0-2.625-1.308-3.16-2.647l1.356-.53s1.388,2.175,3.109,2.375c0,0-2.88-1.818-2.79-2.474a7.052,7.052,0,0,1,1.667-.357s1.031,1.539,2.042,1.565c0,0-1.8-1.42-1.677-1.638a7.566,7.566,0,0,1,2.742.343,5.463,5.463,0,0,0-2.744-.625,3.012,3.012,0,0,1,1.458-.914s-.992-.408-1.9.941a6.939,6.939,0,0,0-1.575.284,6.551,6.551,0,0,1,1.582-2.078s-1.3.228-1.945,2.207l-1.378.51a9.353,9.353,0,0,1,1.573-2.586s-1.291.438-1.908,2.742l-1.266.685a11.169,11.169,0,0,1,1.264-2.615,4.437,4.437,0,0,0-1.619,2.824l-.792.557s.454-1.276.617-1.631.083-.428.083-.428a4.593,4.593,0,0,0-1.035,2.287A11.254,11.254,0,0,1,723.27,187.639Z" transform="translate(-562.984 -152.052)"/><path class="p" d="M38.339,0A198.972,198.972,0,0,1,57.311,12.258C66.9,19.311,76.677,28.211,76.677,28.211H0L24.435,8.756Z" transform="matrix(0.998, 0.07, -0.07, 0.998, 25.665, 0.411)"/></svg>