<svg xmlns="http://www.w3.org/2000/svg" width="28.348" height="28.348" viewBox="0 0 28.348 28.348"><defs><style>.a{fill:#75b848;}</style></defs><path class="a" d="M14.174,0A14.174,14.174,0,1,0,28.348,14.174,14.175,14.175,0,0,0,14.174,0Zm.3,22.426h0a8.48,8.48,0,0,1-4.054-1.032l-4.5,1.179,1.2-4.395a8.484,8.484,0,1,1,7.351,4.248Zm0,0" transform="translate(0 0)"/><path class="a" d="M141.478,124.469a7.405,7.405,0,0,0-6.275,11.34l.176.28-.748,2.731,2.8-.735.271.16a7.391,7.391,0,0,0,3.768,1.032h0a7.4,7.4,0,0,0,0-14.809Zm4.355,10.584a2.294,2.294,0,0,1-1.5,1.058,3.055,3.055,0,0,1-1.4-.088,12.844,12.844,0,0,1-1.269-.469,9.921,9.921,0,0,1-3.8-3.36,4.328,4.328,0,0,1-.909-2.3,2.5,2.5,0,0,1,.779-1.856.818.818,0,0,1,.594-.278c.148,0,.3,0,.427.008s.32-.052.5.382.631,1.541.686,1.652a.41.41,0,0,1,.019.39,6.341,6.341,0,0,1-.556.761c-.1.122-.228.231-.1.454a6.71,6.71,0,0,0,1.238,1.541,6.086,6.086,0,0,0,1.79,1.1c.222.111.352.093.482-.056s.556-.65.7-.873.3-.185.5-.111,1.3.613,1.521.724.371.167.426.26a1.856,1.856,0,0,1-.13,1.058Zm0,0" transform="translate(-127.016 -117.919)"/></svg>