<svg xmlns="http://www.w3.org/2000/svg" width="30.541" height="24.305" viewBox="0 0 30.541 24.305"><g transform="translate(0 0)"><path d="M76.609,120.939l-10.892,8.979a.257.257,0,0,1-.01.057.259.259,0,0,0-.01.057v9.093a1.23,1.23,0,0,0,1.212,1.213h7.274v-7.274h4.85v7.275h7.274a1.231,1.231,0,0,0,1.213-1.213v-9.093a.267.267,0,0,0-.019-.113Z" transform="translate(-61.339 -116.033)"/><path d="M30.33,58.834l-4.148-3.448V47.657a.584.584,0,0,0-.606-.606H21.938a.583.583,0,0,0-.606.606v3.694L16.71,47.487a2.35,2.35,0,0,0-2.879,0L.21,58.834A.55.55,0,0,0,0,59.241a.613.613,0,0,0,.133.445l1.174,1.4a.646.646,0,0,0,.4.208.7.7,0,0,0,.455-.133L15.27,50.233,28.379,61.164a.584.584,0,0,0,.4.132h.057a.647.647,0,0,0,.4-.208l1.175-1.4a.613.613,0,0,0,.132-.446A.552.552,0,0,0,30.33,58.834Z" transform="translate(0.001 -46.994)"/></g></svg>