<svg xmlns="http://www.w3.org/2000/svg" width="30.541" height="26.139" viewBox="0 0 30.541 26.139"><g transform="translate(0 0)"><path d="M7.273,10.9a4.007,4.007,0,0,0,4.006-4.01c0-1.381.486-2.646-.581-3.364-.64-.436-3.45-.643-4.28-.643a5.566,5.566,0,0,0-2.97,1.4c-.869.734-.184,1.38-.184,2.606A4.007,4.007,0,0,0,7.273,10.9ZM4.481,6.5a2.156,2.156,0,0,1,1.236.109l1.23-.6s-.626.905-.064.6a6.962,6.962,0,0,1,3.366-.105,3.035,3.035,0,0,1,.048.483A2.933,2.933,0,1,1,4.481,6.5Z" transform="translate(0.752 -1.479)"/><path d="M24.523,6.614a4.832,4.832,0,0,0-.088-.676,4.755,4.755,0,0,0-5.025-4.175c-3.11.074-3.789,2.415-3.953,3.84a4.607,4.607,0,0,0-.205,1.1c-4.045.706-3.6,4.811-1.13,4.881A4.738,4.738,0,0,1,15.3,7.736a4.649,4.649,0,0,0,9.114.343,6.142,6.142,0,0,1,.86,3.5C29.17,11.549,27.255,7.1,24.523,6.614Zm-4.629,3.718a3.351,3.351,0,0,1-3.34-3.276c.664-.241,1.156-1.391,1.156-1.391S18.1,5.8,18.1,7.1c.689.24,1.885-2.018,1.885-2.018V6.859a14.372,14.372,0,0,0,3.151-.068l.089.075c0,.038.011.076.011.115A3.348,3.348,0,0,1,19.895,10.331Z" transform="translate(3.06 -1.761)"/><path d="M23.93,9.769H20.317l-4.814,5.8L10.844,9.842h-5.3L0,15.932l1.163,1.2,3.971-3.389v6.573h.8v5H5.424V25.9H7.73V20.314h.864V25.9h2.3v-.586H10.39v-5h.966V13.865l3.175,3.26,1.3-.32.719.18,3.6-4.116L20.35,14.5l-3.34,5.74h3.853v5h-.506v.581h2.3v-.581h0v-5h.861V25.82h2.305v-.581h-.506v-5h2.986L25.366,14.5l.161-2.008,2.811,3.768L30.2,15.8,25.743,9.769Z" transform="translate(0 0.242)"/></g></svg>