<svg xmlns="http://www.w3.org/2000/svg" width="27" height="27" viewBox="0 0 27 27"><defs><style>.a{fill:#55acee;}.b{fill:#f1f2f2;}</style></defs><g transform="translate(-0.186 -0.07)"><circle class="a" cx="13.5" cy="13.5" r="13.5" transform="translate(0.186 0.07)"/><g transform="translate(4.928 7.875)"><path class="b" d="M41.346,35.591a6.648,6.648,0,0,1-1.914.524A3.341,3.341,0,0,0,40.9,34.272a6.671,6.671,0,0,1-2.116.808A3.335,3.335,0,0,0,33.1,38.12a9.46,9.46,0,0,1-6.869-3.482,3.336,3.336,0,0,0,1.031,4.449,3.309,3.309,0,0,1-1.509-.417c0,.014,0,.028,0,.042a3.334,3.334,0,0,0,2.673,3.267,3.346,3.346,0,0,1-1.5.058,3.336,3.336,0,0,0,3.113,2.314,6.727,6.727,0,0,1-4.934,1.38,9.477,9.477,0,0,0,14.589-7.984q0-.217-.01-.431a6.757,6.757,0,0,0,1.663-1.725Z" transform="translate(-25.103 -34.028)"/></g></g></svg>