<svg xmlns="http://www.w3.org/2000/svg" width="26.587" height="26.587" viewBox="0 0 26.587 26.587"><defs><style>.a{fill:#75b848;}</style></defs><path class="a" d="M13.293,0A13.293,13.293,0,1,0,26.587,13.293,13.295,13.295,0,0,0,13.293,0Zm.282,21.033h0a7.953,7.953,0,0,1-3.8-.968L5.552,21.171l1.129-4.122a7.957,7.957,0,1,1,6.894,3.984Zm0,0"/><path class="a" d="M141.053,124.469a6.98,6.98,0,0,0-5.915,10.689l.166.264L134.6,138l2.641-.693.255.151a6.968,6.968,0,0,0,3.552.973h0a6.979,6.979,0,0,0,0-13.959Zm4.105,9.976a2.162,2.162,0,0,1-1.416,1,2.879,2.879,0,0,1-1.321-.083,12.1,12.1,0,0,1-1.2-.442,9.352,9.352,0,0,1-3.584-3.167,4.08,4.08,0,0,1-.857-2.17,2.352,2.352,0,0,1,.734-1.75.771.771,0,0,1,.56-.262c.14,0,.28,0,.4.007s.3-.049.472.36.594,1.452.647,1.557a.387.387,0,0,1,.018.368,5.974,5.974,0,0,1-.524.717c-.093.115-.215.218-.092.428a6.324,6.324,0,0,0,1.167,1.453,5.736,5.736,0,0,0,1.687,1.041c.21.1.332.087.454-.052s.524-.612.664-.822.28-.175.472-.1,1.224.577,1.434.682.35.158.4.245a1.749,1.749,0,0,1-.122,1Zm0,0" transform="translate(-127.491 -118.36)"/></svg>